<svg height="800.00075pt" viewBox="-25 -25 800.00075 800.00075" width="800.00075pt" xmlns="http://www.w3.org/2000/svg"><path d="m585.917969 423.417969c-9.933594-.023438-19.847657.882812-29.613281 2.710937l-235.597657-235.597656c1.832031-9.765625 2.734375-19.675781 2.710938-29.613281-.101563-89.703125-72.796875-162.398438-162.5-162.5-14.242188-.03125-28.421875 1.835937-42.171875 5.5625l-20.769532 5.6875 70.132813 70.125-18.640625 69.6875-69.683594 18.628906-70.117187-70.132813-5.667969 20.769532c-3.730469 13.742187-5.613281 27.929687-5.582031 42.171875.101562 89.703125 72.796875 162.398437 162.5 162.5 9.9375.023437 19.847656-.878907 29.613281-2.710938l235.601562 235.597657c-1.832031 9.765624-2.738281 19.675781-2.714843 29.613281.101562 89.703125 72.796875 162.398437 162.5 162.5 14.242187.027343 28.425781-1.835938 42.171875-5.5625l20.765625-5.671875-70.121094-70.128906 18.632813-69.6875 69.6875-18.640626 70.128906 70.128907 5.671875-20.765625c3.726562-13.746094 5.589843-27.929688 5.5625-42.171875-.101563-89.703125-72.796875-162.398438-162.5-162.5zm136.875 175.710937-48.265625-48.289062-97.570313 26.117187-26.117187 97.570313 48.289062 48.265625c-4.363281.410156-8.75.625-13.210937.625-75.902344-.09375-137.40625-61.597657-137.5-137.5-.050781-10.324219 1.128906-20.621094 3.515625-30.664063l1.660156-6.835937-255.175781-255.175781-6.835938 1.664062c-10.042969 2.382812-20.335937 3.558594-30.664062 3.511719-75.902344-.09375-137.40625-61.597657-137.5-137.5 0-4.4375.214843-8.847657.628906-13.214844l48.261719 48.292969 97.574218-26.117188 26.113282-97.570312-48.292969-48.265625c4.367187-.410157 8.75-.625 13.214844-.625 75.902343.09375 137.40625 61.597656 137.5 137.5.046875 10.328125-1.128907 20.621093-3.511719 30.664062l-1.664062 6.835938 255.175781 255.175781 6.835937-1.660156c10.042969-2.386719 20.339844-3.566406 30.664063-3.515625 75.902343.09375 137.40625 61.597656 137.5 137.5 0 4.4375-.214844 8.847656-.625 13.210937zm0 0"/><path d="m218.242188 285.917969 255.175781 255.175781 67.675781-67.675781-255.175781-255.175781zm255.175781 219.824219-219.824219-219.824219 32.324219-32.324219 219.824219 219.824219zm0 0"/><path d="m712.632812 110.917969c-.5625-1.410157-1.167968-2.828125-1.777343-4.222657l25.324219-25.324218-70.710938-70.71875-25.328125 25.328125c-1.394531-.609375-2.808594-1.246094-4.222656-1.777344v-35.785156h-100v35.785156c-1.410157.566406-2.828125 1.167969-4.222657 1.777344l-25.324218-25.328125-70.71875 70.71875 25.324218 25.324218c-.609374 1.394532-1.246093 2.8125-1.769531 4.222657h-35.789062v100h35.789062c.5625 1.410156 1.160157 2.828125 1.769531 4.222656l-25.324218 25.332031 70.71875 70.707032 25.324218-25.261719c1.394532.609375 2.8125 1.25 4.222657 1.777343v35.722657h100v-35.785157c1.414062-.566406 2.828125-1.164062 4.222656-1.773437l25.328125 25.320313 70.710938-70.707032-25.261719-25.332031c.609375-1.394531 1.25-2.8125 1.777343-4.222656h35.722657v-100zm10.785157 75h-28.75l-2.773438 8.753906c-1.917969 5.972656-4.339843 11.773437-7.25 17.335937l-4.214843 8.117188 20.359374 20.371094-35.351562 35.34375-20.359375-20.363282-8.125 4.214844c-5.558594 2.910156-11.359375 5.332032-17.335937 7.25l-8.699219 2.730469v28.746094h-50v-28.746094l-8.746094-2.777344c-5.980469-1.917969-11.78125-4.347656-17.34375-7.25l-8.121094-4.214843-20.359375 20.359374-35.351562-35.351562 20.359375-20.359375-4.210938-8.121094c-2.90625-5.5625-5.332031-11.363281-7.253906-17.34375l-2.71875-8.695312h-28.753906v-50h28.753906l2.769531-8.75c1.917969-5.976563 4.34375-11.777344 7.25-17.335938l4.214844-8.125-20.386719-20.335937 35.351563-35.351563 20.363281 20.363281 8.117187-4.214843c5.558594-2.90625 11.347657-5.332031 17.320313-7.261719l8.746094-2.738281v-28.75h50v28.75l8.75 2.773437c5.976562 1.921875 11.78125 4.359375 17.347656 7.265625l8.128906 4.207031 20.363281-20.359374 35.347657 35.351562-20.363281 20.359375 4.210937 8.125c2.910156 5.5625 5.335937 11.367187 7.25 17.339844l2.777344 8.75h28.6875zm0 0"/><path d="m585.917969 95.378906c-36.195313 0-65.542969 29.347656-65.542969 65.539063 0 36.195312 29.347656 65.542969 65.542969 65.542969 36.191406 0 65.535156-29.347657 65.535156-65.542969-.039063-36.175781-29.355469-65.5-65.535156-65.539063zm0 106.082032c-22.386719 0-40.542969-18.15625-40.542969-40.542969s18.15625-40.539063 40.542969-40.539063 40.535156 18.152344 40.535156 40.539063c-.027344 22.378906-18.164063 40.507812-40.535156 40.542969zm0 0"/><path d="m287.632812 535.917969c-.5625-1.410157-1.164062-2.828125-1.773437-4.222657l25.320313-25.324218-70.707032-70.71875-25.332031 25.324218c-1.394531-.609374-2.808594-1.246093-4.222656-1.773437v-35.785156h-100v35.785156c-1.410157.566406-2.828125 1.164063-4.222657 1.773437l-25.324218-25.324218-70.71875 70.71875 25.328125 25.324218c-.609375 1.394532-1.246094 2.8125-1.773438 4.222657h-35.789062v100h35.789062c.5625 1.410156 1.164063 2.828125 1.773438 4.222656l-25.328125 25.328125 70.71875 70.710938 25.324218-25.261719c1.394532.609375 2.8125 1.25 4.222657 1.777343v35.722657h100v-35.785157c1.414062-.566406 2.828125-1.167968 4.222656-1.777343l25.332031 25.324219 70.707032-70.710938-25.261719-25.328125c.609375-1.394531 1.25-2.8125 1.777343-4.222656h35.722657v-100zm10.785157 75h-28.746094l-2.777344 8.75c-1.917969 5.976562-4.339843 11.777343-7.25 17.332031l-4.214843 8.125 20.359374 20.367188-35.351562 35.347656-20.359375-20.363282-8.121094 4.214844c-5.5625 2.910156-11.363281 5.332032-17.332031 7.25l-8.707031 2.726563v28.75h-50v-28.75l-8.746094-2.773438c-5.980469-1.917969-11.78125-4.347656-17.339844-7.25l-8.125-4.214843-20.335937 20.386718-35.351563-35.347656 20.363281-20.367188-4.214843-8.125c-2.90625-5.550781-5.332031-11.34375-7.25-17.308593l-2.746094-8.75h-28.753906v-50h28.753906l2.769531-8.753907c1.917969-5.972656 4.34375-11.773437 7.25-17.335937l4.214844-8.121094-20.386719-20.335937 35.351563-35.351563 20.363281 20.363281 8.125-4.214843c5.566406-2.910157 11.367187-5.34375 17.347656-7.261719l8.710938-2.742188v-28.746093h50v28.746093l8.753906 2.777344c5.972656 1.921875 11.777344 4.359375 17.34375 7.265625l8.128906 4.207031 20.363281-20.359374 35.347657 35.351562-20.363281 20.359375 4.210937 8.125c2.914063 5.5625 5.335937 11.363281 7.25 17.339844l2.777344 8.746093h28.6875zm0 0"/><path d="m160.917969 520.375c-36.191407 0-65.539063 29.347656-65.539063 65.542969 0 36.191406 29.347656 65.535156 65.539063 65.535156 36.195312 0 65.542969-29.34375 65.542969-65.535156-.046876-36.175781-29.363282-65.5-65.542969-65.542969zm0 106.078125c-22.386719 0-40.539063-18.148437-40.539063-40.535156s18.152344-40.542969 40.539063-40.542969 40.542969 18.15625 40.542969 40.542969c-.035157 22.371093-18.164063 40.507812-40.542969 40.535156zm0 0"/></svg>