<svg version="1.1"
	 xmlns="http://www.w3.org/2000/svg" xmlns:xlink="http://www.w3.org/1999/xlink" xmlns:a="http://ns.adobe.com/AdobeSVGViewerExtensions/3.0/"
	 x="0px" y="0px" width="498px" height="706.1px" viewBox="0 0 498 706.1"
	 style="overflow:scroll;enable-background:new 0 0 498 706.1;" xml:space="preserve">
<style type="text/css">
	.st0{fill:#eb6b0a;}
</style>
<defs>
</defs>
<g>
	<path class="st0" d="M248.4,658.4c-20.5,0-41,0.1-61.5,0c-9.2,0-15.8-5.4-16.8-13.1c-1.2-9.7,5.6-17.8,15.5-17.9
		c13.7-0.2,27.3-0.2,41,0c4,0.1,5.5-0.9,5.4-5.2c-0.2-33-0.1-66,0-99c0-3.6-1-4.7-4.6-5.3c-60.7-10.4-100.9-45.9-123.6-102.1
		c-2.3-5.6-5.2-7.1-10.5-7.3c-18.3-0.8-35.6-5.5-51.1-15.3c-23-14.5-35.2-36.3-40-62.5c-2.9-15.3-2.9-30.8-0.3-46.3
		c1.9-11.6,7-15.9,19-16c21.8,0,43.7-0.1,65.5,0.1c4.4,0,6-1.2,5.6-5.6c-0.3-3.5-0.1-7,0-10.5c0.4-8.4,6.5-14.6,15-15.1
		c1.5-0.1,3,0,4.5,0c91,0,182,0,273,0c14.2,0,19.5,5.3,19.5,19.7c0,11.5,0,11.5,11.5,11.5c20.7,0,41.3,0,62,0
		c11.8,0,17.1,4.6,18.7,16.2c3.4,23.5,2.7,46.6-6.9,68.7c-14.1,32.3-39.9,48.8-73.9,53.8c-5.3,0.8-10.6,1.3-15.9,1.5
		c-3.7,0.1-5.4,1.6-6.7,5.1c-8.3,23.1-21.1,43.3-38.6,60.6c-23.3,23.1-51,37.7-83.5,42.8c-9.4,1.5-7.5,0.7-7.5,8.8
		c-0.1,31.8,0.1,63.7-0.1,95.5c0,4.7,1.4,5.9,5.9,5.8c13.5-0.3,27-0.1,40.5-0.1c10.4,0,17.6,6.5,17.6,15.6c0,9.2-7,15.5-17.7,15.5
		C289,658.4,268.7,658.4,248.4,658.4z M247.5,268.4c-39.7,0-79.3,0.1-119-0.1c-4.4,0-5.6,1.1-5.6,5.6c0.2,25.8,0.1,51.6,0.1,77.5
		c0,40.9,14,76,44,104.1c30.9,29,67.5,38.8,108.5,28.9c58.5-14.2,93.5-67.8,96.3-121.9c1.5-29.1,0.6-58.3,0.8-87.4
		c0-6.6,0-6.6-6.6-6.6C326.5,268.4,287,268.4,247.5,268.4z M435.3,299.7c-8.7,0-17.3,0.2-26-0.1c-4.5-0.2-5.5,1.5-5.6,5.7
		c-0.1,20.8-0.3,41.6-0.9,62.4c-0.3,9.7-0.6,9.9,8.9,8.3c24.4-4,43.5-15.4,50.3-40.7c2.7-10.1,2.9-21,4.1-31.5
		c0.4-3.4-1.5-4.2-4.5-4.2C453,299.8,444.1,299.7,435.3,299.7z M91.4,334c0.2,0,0.3,0,0.5,0c0-10,0-20,0-30c0-2.4-0.2-4.3-3.3-4.3
		c-17.8,0-35.6,0-53.4,0.2c-1.2,0-3.2,2-3.3,3.1c-0.7,17.8,1.3,35.1,12.2,49.9c10.9,14.9,26.6,21.4,44.5,23.6
		c3.9,0.5,4.9-0.1,4.6-4.1C92.3,359.6,91.9,346.8,91.4,334z"/>
	<path class="st0" d="M248.9,706c-35.3,0-70.6,0.1-105.9-0.2c-4.4,0-9.3-1.4-13.1-3.6c-5.4-3.1-7.4-10-5.8-15.8
		c1.8-6.3,6-10.2,12.5-11.4c1.8-0.3,3.6-0.4,5.5-0.4c71.3,0,142.5,0,213.8,0c6.5,0,12.2,1.3,16,7.2c5.8,8.9,1.1,20.9-9.3,23.3
		c-2.7,0.6-5.6,0.8-8.4,0.8C319.1,706,284,706,248.9,706z"/>
	<g>
		<path class="st0" d="M125.4,175.8c-25-25-40.5-40.4-65.3-65.5c-3.1-3.1-5.6-7.6-6.7-11.8c-1.6-6,1.8-12.3,7.1-15.2
			c5.8-3.2,11.5-3,16.9,0.8c1.5,1,2.8,2.3,4.1,3.6c50.4,50.4,16.9,16.9,67.3,67.2c4.6,4.6,7.7,9.6,6.3,16.4c-2.2,10.4-14,15.6-23,10
			c-2.4-1.5-4.5-3.4-6.5-5.4C100.6,151,150.2,200.6,125.4,175.8z"/>
		<path class="st0" d="M372.6,175.8c25-25,40.5-40.4,65.3-65.5c3.1-3.1,5.6-7.6,6.7-11.8c1.6-6-1.8-12.3-7.1-15.2
			c-5.8-3.2-11.5-3-16.9,0.8c-1.5,1-2.8,2.3-4.1,3.6c-50.4,50.4-16.9,16.9-67.3,67.2c-4.6,4.6-7.7,9.6-6.3,16.4
			c2.2,10.4,14,15.6,23,10c2.4-1.5,4.5-3.4,6.5-5.4C397.4,151,347.8,200.6,372.6,175.8z"/>
	</g>
	<path class="st0" d="M233.3,111.9c0-35.3-0.1-57.2,0.2-92.5c0-4.4,1.4-9.3,3.6-13.1c3.1-5.4,10-7.4,15.8-5.8
		c6.3,1.8,10.2,6,11.4,12.5c0.3,1.8,0.4,3.6,0.4,5.5c0,71.3,0,23.9,0,95.1c0,6.5-1.3,12.2-7.2,16c-8.9,5.8-20.9,1.1-23.3-9.3
		c-0.6-2.7-0.8-5.6-0.8-8.4C233.3,76.9,233.3,147.1,233.3,111.9z"/>
</g>
</svg>
