<svg version="1.1"
	 xmlns="http://www.w3.org/2000/svg" xmlns:xlink="http://www.w3.org/1999/xlink" xmlns:a="http://ns.adobe.com/AdobeSVGViewerExtensions/3.0/"
	 x="0px" y="0px" width="512px" height="554.7px" viewBox="0 0 512 554.7"
	 style="overflow:scroll;enable-background:new 0 0 512 554.7;" xml:space="preserve">
<style type="text/css">
	.st0{fill:#4E4E56;}
</style>
<defs>
</defs>
<g>
	<g>
		<path class="st0" d="M125.5,554.7c-0.6,0-1.2-0.1-1.8-0.4l-24.7-13l-24.7,13c-1.3,0.7-2.9,0.6-4.1-0.3c-1.2-0.9-1.8-2.3-1.5-3.8
			l4.7-27.5l-20-19.5c-1.1-1-1.4-2.6-1-4c0.5-1.4,1.7-2.4,3.1-2.6l27.6-4l12.3-25c0.7-1.3,2-2.2,3.5-2.2l0,0c1.5,0,2.8,0.8,3.5,2.2
			l12.3,25l27.6,4c1.5,0.2,2.7,1.2,3.1,2.6c0.5,1.4,0.1,2.9-1,4l-20,19.5l4.7,27.5c0.2,1.4-0.3,2.9-1.5,3.8
			C127.1,554.4,126.3,554.7,125.5,554.7z"/>
		<g>
			<path class="st0" d="M230.1,554.7c-0.6,0-1.2-0.1-1.8-0.4l-24.7-13l-24.7,13c-1.3,0.7-2.9,0.6-4.1-0.3c-1.2-0.9-1.8-2.3-1.5-3.8
				l4.7-27.5l-20-19.5c-1.1-1-1.4-2.6-1-4c0.5-1.4,1.7-2.4,3.1-2.6l27.6-4l12.3-25c0.7-1.3,2-2.2,3.5-2.2l0,0c1.5,0,2.8,0.8,3.5,2.2
				l12.3,25l27.6,4c1.5,0.2,2.7,1.2,3.1,2.6c0.5,1.4,0.1,2.9-1,4l-20,19.5l4.7,27.5c0.2,1.4-0.3,2.9-1.5,3.8
				C231.7,554.4,230.9,554.7,230.1,554.7z"/>
		</g>
		<g>
			<path class="st0" d="M334.8,554.7c-0.6,0-1.2-0.1-1.8-0.4l-24.7-13l-24.7,13c-1.3,0.7-2.9,0.6-4.1-0.3c-1.2-0.9-1.8-2.3-1.5-3.8
				l4.7-27.5l-20-19.5c-1.1-1-1.4-2.6-1-4c0.5-1.4,1.7-2.4,3.1-2.6l27.6-4l12.3-25c0.7-1.3,2-2.2,3.5-2.2l0,0c1.5,0,2.8,0.8,3.5,2.2
				l12.3,25l27.6,4c1.5,0.2,2.7,1.2,3.1,2.6c0.5,1.4,0.1,2.9-1,4l-20,19.5l4.7,27.5c0.2,1.4-0.3,2.9-1.5,3.8
				C336.4,554.4,335.6,554.7,334.8,554.7z"/>
		</g>
		<g>
			<path class="st0" d="M439.5,554.7c-0.6,0-1.2-0.1-1.8-0.4l-24.7-13l-24.7,13c-1.3,0.7-2.9,0.6-4.1-0.3c-1.2-0.9-1.8-2.3-1.5-3.8
				l4.7-27.5l-20-19.5c-1.1-1-1.4-2.6-1-4c0.5-1.4,1.7-2.4,3.1-2.6l27.6-4l12.3-25c0.7-1.3,2-2.2,3.5-2.2l0,0c1.5,0,2.8,0.8,3.5,2.2
				l12.3,25l27.6,4c1.5,0.2,2.7,1.2,3.1,2.6c0.5,1.4,0.1,2.9-1,4l-20,19.5l4.7,27.5c0.2,1.4-0.3,2.9-1.5,3.8
				C441.1,554.4,440.3,554.7,439.5,554.7z"/>
		</g>
	</g>
	<g>
		<path class="st0" d="M494.5,84.4H388.6v-8.7c0-9.6-7.9-17.5-17.5-17.5h-9.9c-4.1,0-7.5,3.4-7.5,7.5c0,4.1,3.4,7.5,7.5,7.5h9.9
			c1.4,0,2.5,1.1,2.5,2.5v354.8h-75.1V75.7c0-1.4,1.1-2.5,2.5-2.5h29.8c4.1,0,7.5-3.4,7.5-7.5c0-4.1-3.4-7.5-7.5-7.5H301
			c-9.6,0-17.5,7.9-17.5,17.5v8.7H149.4V13.5c0-7.4-6.1-13.5-13.5-13.5h-13c-7.4,0-13.5,6.1-13.5,13.5v17.9h-8.5V13.5
			C100.9,6.1,94.9,0,87.4,0h-13C67,0,60.9,6.1,60.9,13.5v70.9H17.5C7.9,84.4,0,92.2,0,101.9v17c0,9.6,7.9,17.5,17.5,17.5h15v133.2
			c0,4.1,3.4,7.5,7.5,7.5s7.5-3.4,7.5-7.5V136.3h20v294.1H50c-1.4,0-2.5-1.1-2.5-2.5V299.9c0-4.1-3.4-7.5-7.5-7.5s-7.5,3.4-7.5,7.5
			V428c0,9.6,7.9,17.5,17.5,17.5h429c9.6,0,17.5-7.9,17.5-17.5v-65.6c0-4.1-3.4-7.5-7.5-7.5s-7.5,3.4-7.5,7.5V428
			c0,1.4-1.1,2.5-2.5,2.5h-90.4V136.3h92.9v195.7c0,4.1,3.4,7.5,7.5,7.5s7.5-3.4,7.5-7.5V136.2c8.7-1,15.5-8.4,15.5-17.4v-17
			C512,92.2,504.1,84.4,494.5,84.4z M283.5,136.3v294.1h-29V136.3H283.5z M75.9,15h10v23.9c0,4.1,3.4,7.5,7.5,7.5h23.5
			c4.1,0,7.5-3.4,7.5-7.5V15h10v69.4h-10V63.9c0-4.1-3.4-7.5-7.5-7.5H93.4c-4.1,0-7.5,3.4-7.5,7.5v20.5h-10V15z M109.4,84.4h-8.5
			v-13h8.5V84.4z M15,118.8v-17c0-1.4,1.1-2.5,2.5-2.5h266v22h-266C16.1,121.3,15,120.2,15,118.8z M82.5,136.3h157v294.1h-157V136.3
			z M497,118.8c0,1.4-1.1,2.5-2.5,2.5H388.6v-22h105.9c1.4,0,2.5,1.1,2.5,2.5V118.8z"/>
		<path class="st0" d="M135.2,148.7h-16.5c-9.8,0-17.7,7.9-17.7,17.7v16.5c0,9.8,7.9,17.7,17.7,17.7h16.5c9.8,0,17.7-7.9,17.7-17.7
			v-16.5C152.9,156.6,145,148.7,135.2,148.7z M137.9,182.9c0,1.5-1.2,2.7-2.7,2.7h-16.5c-1.5,0-2.7-1.2-2.7-2.7v-16.5
			c0-1.5,1.2-2.7,2.7-2.7h16.5c1.5,0,2.7,1.2,2.7,2.7V182.9z"/>
		<path class="st0" d="M135.2,218.3h-16.5c-9.8,0-17.7,7.9-17.7,17.7v16.5c0,9.8,7.9,17.7,17.7,17.7h16.5c9.8,0,17.7-7.9,17.7-17.7
			V236C152.9,226.3,145,218.3,135.2,218.3z M137.9,252.6c0,1.5-1.2,2.7-2.7,2.7h-16.5c-1.5,0-2.7-1.2-2.7-2.7V236
			c0-1.5,1.2-2.7,2.7-2.7h16.5c1.5,0,2.7,1.2,2.7,2.7V252.6z"/>
		<path class="st0" d="M135.2,288h-16.5c-9.8,0-17.7,7.9-17.7,17.7v16.5c0,9.8,7.9,17.7,17.7,17.7h16.5c9.8,0,17.7-7.9,17.7-17.7
			v-16.5C152.9,295.9,145,288,135.2,288z M137.9,322.2c0,1.5-1.2,2.7-2.7,2.7h-16.5c-1.5,0-2.7-1.2-2.7-2.7v-16.5
			c0-1.5,1.2-2.7,2.7-2.7h16.5c1.5,0,2.7,1.2,2.7,2.7V322.2z"/>
		<path class="st0" d="M135.2,357.6h-16.5c-9.8,0-17.7,7.9-17.7,17.7v16.5c0,9.8,7.9,17.7,17.7,17.7h16.5c9.8,0,17.7-7.9,17.7-17.7
			v-16.5C152.9,365.5,145,357.6,135.2,357.6z M137.9,391.8c0,1.5-1.2,2.7-2.7,2.7h-16.5c-1.5,0-2.7-1.2-2.7-2.7v-16.5
			c0-1.5,1.2-2.7,2.7-2.7h16.5c1.5,0,2.7,1.2,2.7,2.7V391.8z"/>
		<path class="st0" d="M209.6,148.7H193c-9.8,0-17.7,7.9-17.7,17.7v16.5c0,9.8,7.9,17.7,17.7,17.7h16.5c9.8,0,17.7-7.9,17.7-17.7
			v-16.5C227.3,156.6,219.3,148.7,209.6,148.7z M212.3,182.9c0,1.5-1.2,2.7-2.7,2.7H193c-1.5,0-2.7-1.2-2.7-2.7v-16.5
			c0-1.5,1.2-2.7,2.7-2.7h16.5c1.5,0,2.7,1.2,2.7,2.7V182.9z"/>
		<path class="st0" d="M209.6,218.3H193c-9.8,0-17.7,7.9-17.7,17.7v16.5c0,9.8,7.9,17.7,17.7,17.7h16.5c9.8,0,17.7-7.9,17.7-17.7
			V236C227.3,226.3,219.3,218.3,209.6,218.3z M212.3,252.6c0,1.5-1.2,2.7-2.7,2.7H193c-1.5,0-2.7-1.2-2.7-2.7V236
			c0-1.5,1.2-2.7,2.7-2.7h16.5c1.5,0,2.7,1.2,2.7,2.7V252.6z"/>
		<path class="st0" d="M209.6,288H193c-9.8,0-17.7,7.9-17.7,17.7v16.5c0,9.8,7.9,17.7,17.7,17.7h16.5c9.8,0,17.7-7.9,17.7-17.7
			v-16.5C227.3,295.9,219.3,288,209.6,288z M212.3,322.2c0,1.5-1.2,2.7-2.7,2.7H193c-1.5,0-2.7-1.2-2.7-2.7v-16.5
			c0-1.5,1.2-2.7,2.7-2.7h16.5c1.5,0,2.7,1.2,2.7,2.7V322.2z"/>
		<path class="st0" d="M209.6,357.6H193c-9.8,0-17.7,7.9-17.7,17.7v16.5c0,9.8,7.9,17.7,17.7,17.7h16.5c9.8,0,17.7-7.9,17.7-17.7
			v-16.5C227.3,365.5,219.3,357.6,209.6,357.6z M212.3,391.8c0,1.5-1.2,2.7-2.7,2.7H193c-1.5,0-2.7-1.2-2.7-2.7v-16.5
			c0-1.5,1.2-2.7,2.7-2.7h16.5c1.5,0,2.7,1.2,2.7,2.7V391.8z"/>
		<path class="st0" d="M460.5,166.4c0-9.8-7.9-17.7-17.7-17.7h-16.5c-9.8,0-17.7,7.9-17.7,17.7v16.5c0,9.8,7.9,17.7,17.7,17.7h16.5
			c9.8,0,17.7-7.9,17.7-17.7V166.4z M445.5,182.9c0,1.5-1.2,2.7-2.7,2.7h-16.5c-1.5,0-2.7-1.2-2.7-2.7v-16.5c0-1.5,1.2-2.7,2.7-2.7
			h16.5c1.5,0,2.7,1.2,2.7,2.7V182.9z"/>
		<path class="st0" d="M460.5,236c0-9.8-7.9-17.7-17.7-17.7h-16.5c-9.8,0-17.7,7.9-17.7,17.7v16.5c0,9.8,7.9,17.7,17.7,17.7h16.5
			c9.8,0,17.7-7.9,17.7-17.7V236z M445.5,252.6c0,1.5-1.2,2.7-2.7,2.7h-16.5c-1.5,0-2.7-1.2-2.7-2.7V236c0-1.5,1.2-2.7,2.7-2.7h16.5
			c1.5,0,2.7,1.2,2.7,2.7V252.6z"/>
		<path class="st0" d="M460.5,305.7c0-9.8-7.9-17.7-17.7-17.7h-16.5c-9.8,0-17.7,7.9-17.7,17.7v16.5c0,9.8,7.9,17.7,17.7,17.7h16.5
			c9.8,0,17.7-7.9,17.7-17.7V305.7z M445.5,322.2c0,1.5-1.2,2.7-2.7,2.7h-16.5c-1.5,0-2.7-1.2-2.7-2.7v-16.5c0-1.5,1.2-2.7,2.7-2.7
			h16.5c1.5,0,2.7,1.2,2.7,2.7V322.2z"/>
		<path class="st0" d="M442.8,357.6h-16.5c-9.8,0-17.7,7.9-17.7,17.7v16.5c0,9.8,7.9,17.7,17.7,17.7h16.5c9.8,0,17.7-7.9,17.7-17.7
			v-16.5C460.5,365.5,452.6,357.6,442.8,357.6z M445.5,391.8c0,1.5-1.2,2.7-2.7,2.7h-16.5c-1.5,0-2.7-1.2-2.7-2.7v-16.5
			c0-1.5,1.2-2.7,2.7-2.7h16.5c1.5,0,2.7,1.2,2.7,2.7V391.8z"/>
		<path class="st0" d="M325.8,166.1c0-4.1-3.4-7.5-7.5-7.5c-4.1,0-7.5,3.4-7.5,7.5v19c0,4.1,3.4,7.5,7.5,7.5c4.1,0,7.5-3.4,7.5-7.5
			V166.1z"/>
		<path class="st0" d="M325.8,234.8c0-4.1-3.4-7.5-7.5-7.5c-4.1,0-7.5,3.4-7.5,7.5v19c0,4.1,3.4,7.5,7.5,7.5c4.1,0,7.5-3.4,7.5-7.5
			V234.8z"/>
		<path class="st0" d="M325.8,303.5c0-4.1-3.4-7.5-7.5-7.5c-4.1,0-7.5,3.4-7.5,7.5v19c0,4.1,3.4,7.5,7.5,7.5c4.1,0,7.5-3.4,7.5-7.5
			V303.5z"/>
		<path class="st0" d="M318.3,364.6c-4.1,0-7.5,3.4-7.5,7.5v19c0,4.1,3.4,7.5,7.5,7.5c4.1,0,7.5-3.4,7.5-7.5v-19
			C325.8,368,322.5,364.6,318.3,364.6z"/>
	</g>
</g>
</svg>
