<svg version="1.1"
	 xmlns="http://www.w3.org/2000/svg" xmlns:xlink="http://www.w3.org/1999/xlink" xmlns:a="http://ns.adobe.com/AdobeSVGViewerExtensions/3.0/"
	 x="0px" y="0px" width="477.7px" height="480px" viewBox="0 0 477.7 480" style="enable-background:new 0 0 477.7 480;"
	 xml:space="preserve">
<style type="text/css">
	.st0{fill:#4E4E56;}
	.st1{fill:#FFC600;}
</style>
<defs>
</defs>
<g>
	<path class="st0" d="M359.5,113.1h-43.1c-5,0-9.1,4.1-9.1,9.1v59c0,5,4.1,9.1,9.1,9.1h43.1c5,0,9.1-4.1,9.1-9.1v-59
		C368.6,117.1,364.6,113.1,359.5,113.1z M350.4,172h-24.9v-40.7h24.9V172z"/>
	<path class="st0" d="M359.5,207.7h-43.1c-5,0-9.1,4.1-9.1,9.1v59c0,5,4.1,9.1,9.1,9.1h43.1c5,0,9.1-4.1,9.1-9.1v-59
		C368.6,211.8,364.6,207.7,359.5,207.7z M350.4,266.7h-24.9v-40.7h24.9V266.7z"/>
	<path class="st0" d="M161.3,113.1h-43.1c-5,0-9.1,4.1-9.1,9.1v59c0,5,4.1,9.1,9.1,9.1h43.1c5,0,9.1-4.1,9.1-9.1v-59
		C170.4,117.1,166.4,113.1,161.3,113.1z M152.2,172h-24.9v-40.7h24.9V172z"/>
	<path class="st0" d="M161.3,207.7h-43.1c-5,0-9.1,4.1-9.1,9.1v59c0,5,4.1,9.1,9.1,9.1h43.1c5,0,9.1-4.1,9.1-9.1v-59
		C170.4,211.8,166.4,207.7,161.3,207.7z M152.2,266.7h-24.9v-40.7h24.9V266.7z"/>
	<path class="st0" d="M468.6,426.9h-16.5V220.6c0-5-4.1-9.1-9.1-9.1h-28.2v-145c0-5-4.1-9.1-9.1-9.1h-17.4c-5,0-9.1,4.1-9.1,9.1
		s4.1,9.1,9.1,9.1h8.2v351.3h-27.9v-76.7c0-14-11.4-25.4-25.4-25.4h-1.5c-14,0-25.4,11.4-25.4,25.4v76.7h-25.2v-93
		c0-17-13.8-30.8-30.8-30.8h-42.8c-17,0-30.8,13.8-30.8,30.8v93h-25.2v-76.7c0-14-11.4-25.4-25.4-25.4h-1.5
		c-14,0-25.4,11.4-25.4,25.4v76.7H81.2V75.7h7.4c5,0,9.1-4.1,9.1-9.1s-4.1-9.1-9.1-9.1H72c-5,0-9.1,4.1-9.1,9.1v145H34.7
		c-5,0-9.1,4.1-9.1,9.1v206.3H9.1c-5,0-9.1,4.1-9.1,9.1v34.8c0,5,4.1,9.1,9.1,9.1h459.5c5,0,9.1-4.1,9.1-9.1V436
		C477.7,431,473.7,426.9,468.6,426.9z M414.8,229.7h19.1v197.2h-19.1V229.7z M334.6,350.2c0-4,3.2-7.2,7.2-7.2h1.5
		c4,0,7.2,3.2,7.2,7.2v76.7h-15.9V350.2z M204.8,333.9c0-7,5.7-12.6,12.6-12.6h42.8c7,0,12.6,5.7,12.6,12.6v93h-68.1h0V333.9z
		 M127.3,350.2c0-4,3.2-7.2,7.2-7.2h1.5c4,0,7.2,3.2,7.2,7.2v76.7h-15.9h0V350.2z M43.8,229.7h19.1v197.2H43.8V229.7z M459.5,461.8
		H18.2v-16.6h441.3V461.8z"/>
	<path class="st0" d="M260.4,207.7h-43.1c-5,0-9.1,4.1-9.1,9.1v59c0,5,4.1,9.1,9.1,9.1h43.1c5,0,9.1-4.1,9.1-9.1v-59
		C269.5,211.8,265.5,207.7,260.4,207.7z M251.3,266.7h-24.9v-40.7h24.9V266.7z"/>
	<path class="st0" d="M269.5,148.5c0-5-4.1-9.1-9.1-9.1s-9.1,4.1-9.1,9.1V172h-24.9v-23.5c0-5-4.1-9.1-9.1-9.1c-5,0-9.1,4.1-9.1,9.1
		v32.6c0,5,4.1,9.1,9.1,9.1h43.1c5,0,9.1-4.1,9.1-9.1V148.5z"/>
	<g>
		<g>
			<path class="st1" d="M220.3,63.9c-0.4,0-0.9-0.1-1.3-0.3l-17.7-9.3l-17.7,9.3c-0.9,0.5-2.1,0.4-2.9-0.2c-0.9-0.6-1.3-1.7-1.1-2.7
				L183,41L168.7,27c-0.8-0.7-1-1.8-0.7-2.8c0.3-1,1.2-1.7,2.2-1.9l19.8-2.9l8.8-17.9c0.5-0.9,1.4-1.5,2.5-1.5c1.1,0,2,0.6,2.5,1.5
				l8.8,17.9l19.8,2.9c1,0.2,1.9,0.9,2.2,1.9c0.3,1,0.1,2.1-0.7,2.8L219.7,41l3.4,19.7c0.2,1-0.2,2.1-1.1,2.7
				C221.5,63.7,220.9,63.9,220.3,63.9z M201.4,48.4c0.4,0,0.9,0.1,1.3,0.3l14,7.4L214,40.5c-0.2-0.9,0.1-1.8,0.8-2.4l11.3-11
				l-15.7-2.3c-0.9-0.1-1.7-0.7-2.1-1.5l-7-14.2l-7,14.2c-0.4,0.8-1.2,1.4-2.1,1.5L176.6,27l11.3,11c0.7,0.6,0.9,1.6,0.8,2.4
				l-2.7,15.6l14-7.4C200.5,48.5,200.9,48.4,201.4,48.4z"/>
		</g>
		<g>
			<path class="st1" d="M156.7,93c-0.4,0-0.9-0.1-1.3-0.3l-17.7-9.3l-17.7,9.3c-0.9,0.5-2.1,0.4-2.9-0.2c-0.9-0.6-1.3-1.7-1.1-2.7
				l3.4-19.7l-14.3-13.9c-0.8-0.7-1-1.8-0.7-2.8c0.3-1,1.2-1.7,2.2-1.9l19.8-2.9l8.8-17.9c0.5-0.9,1.4-1.5,2.5-1.5
				c1.1,0,2,0.6,2.5,1.5l8.8,17.9l19.8,2.9c1,0.2,1.9,0.9,2.2,1.9c0.3,1,0.1,2.1-0.7,2.8l-14.3,13.9l3.4,19.7c0.2,1-0.2,2.1-1.1,2.7
				C157.9,92.9,157.3,93,156.7,93z M137.8,77.5c0.4,0,0.9,0.1,1.3,0.3l14,7.4l-2.7-15.6c-0.2-0.9,0.1-1.8,0.8-2.4l11.3-11l-15.7-2.3
				c-0.9-0.1-1.7-0.7-2.1-1.5l-7-14.2l-7,14.2c-0.4,0.8-1.2,1.4-2.1,1.5L113,56.2l11.3,11c0.7,0.6,0.9,1.6,0.8,2.4l-2.7,15.6l14-7.4
				C136.9,77.7,137.3,77.5,137.8,77.5z"/>
		</g>
		<g>
			<path class="st1" d="M257.7,63.3c-0.9-0.6-1.3-1.7-1.1-2.7L260,41L245.7,27c-0.8-0.7-1-1.8-0.7-2.8c0.3-1,1.2-1.7,2.2-1.9
				l19.8-2.9l8.8-17.9c0.5-0.9,1.4-1.5,2.5-1.5c1.1,0,2,0.6,2.5,1.5l8.8,17.9l19.8,2.9c1,0.2,1.9,0.9,2.2,1.9c0.3,1,0.1,2.1-0.7,2.8
				L296.6,41l3.4,19.7c0.2,1-0.2,2.1-1.1,2.7c-0.9,0.6-2,0.7-2.9,0.2l-17.7-9.3l-17.7,9.3c-0.4,0.2-0.8,0.3-1.3,0.3
				C258.8,63.9,258.2,63.7,257.7,63.3z M279.6,48.7l14,7.4l-2.7-15.6c-0.2-0.9,0.1-1.8,0.8-2.4L303,27l-15.7-2.3
				c-0.9-0.1-1.7-0.7-2.1-1.5l-7-14.2l-7,14.2c-0.4,0.8-1.2,1.4-2.1,1.5L253.6,27l11.3,11c0.7,0.6,0.9,1.6,0.8,2.4L263,56.1l14-7.4
				c0.4-0.2,0.8-0.3,1.3-0.3C278.8,48.4,279.2,48.5,279.6,48.7z"/>
		</g>
		<g>
			<path class="st1" d="M321.3,92.5c-0.9-0.6-1.3-1.7-1.1-2.7l3.4-19.7l-14.3-13.9c-0.8-0.7-1-1.8-0.7-2.8c0.3-1,1.2-1.7,2.2-1.9
				l19.8-2.9l8.8-17.9c0.5-0.9,1.4-1.5,2.5-1.5s2,0.6,2.5,1.5l8.8,17.9l19.8,2.9c1,0.2,1.9,0.9,2.2,1.9c0.3,1,0.1,2.1-0.7,2.8
				l-14.3,13.9l3.4,19.7c0.2,1-0.2,2.1-1.1,2.7c-0.9,0.6-2,0.7-2.9,0.2l-17.7-9.3l-17.7,9.3c-0.4,0.2-0.8,0.3-1.3,0.3
				C322.4,93,321.8,92.9,321.3,92.5z M343.2,77.9l14,7.4l-2.7-15.6c-0.2-0.9,0.1-1.8,0.8-2.4l11.3-11L351,53.9
				c-0.9-0.1-1.7-0.7-2.1-1.5l-7-14.2l-7,14.2c-0.4,0.8-1.2,1.4-2.1,1.5l-15.7,2.3l11.3,11c0.7,0.6,0.9,1.6,0.8,2.4l-2.7,15.6
				l14-7.4c0.4-0.2,0.8-0.3,1.3-0.3S342.8,77.7,343.2,77.9z"/>
		</g>
	</g>
</g>
</svg>
