<?xml version="1.0" encoding="iso-8859-1"?>
<!-- Generator: Adobe Illustrator 19.0.0, SVG Export Plug-In . SVG Version: 6.00 Build 0)  -->
<svg version="1.1" id="Capa_1" xmlns="http://www.w3.org/2000/svg" xmlns:xlink="http://www.w3.org/1999/xlink" x="0px" y="0px"
	 viewBox="0 0 353.645 353.645" style="enable-background:new 0 0 353.645 353.645;" xml:space="preserve" width="150px" height="150px">
<style type="text/css">
	.st0{fill:#FFFFFF;}
</style>
<g>
	<g>
		<path class="st0" d="M199.021,30.39c-2.56,0-4.608,0-6.656,0.512c-9.728-11.776-24.064-18.432-39.424-18.432
			c-23.04,0-43.008,15.36-49.664,37.376c-16.896,1.536-29.696,15.872-29.696,32.768c0,18.432,14.848,33.28,32.768,33.28
			c7.68,0,14.336-2.56,20.48-7.168c7.68,4.608,16.896,7.168,26.112,7.168c15.36,0,29.696-6.656,39.424-18.432
			c2.048,0.512,4.608,0.512,6.656,0.512c18.432,0,33.792-14.848,33.792-33.792C232.813,45.75,217.965,30.39,199.021,30.39z
			 M199.021,87.734c-2.56,0-5.12-0.512-7.168-1.024c-2.048-0.512-4.608,0-5.632,2.048c-7.68,10.24-19.968,16.896-33.28,16.896
			c-8.704,0-16.384-2.56-23.552-7.68c-1.024-0.512-2.048-1.024-3.072-1.024c-1.536,0-2.56,0.512-3.584,1.536
			c-4.096,4.608-10.24,6.656-16.384,6.656c-12.288,0-22.528-10.24-22.528-22.528c0-12.288,10.24-22.528,23.04-22.528h0.512
			c2.56,0,4.608-1.536,5.12-4.096c3.584-18.944,20.992-33.28,40.448-33.28c13.312,0,25.6,6.144,33.28,16.896
			c1.536,2.048,3.584,2.56,5.632,2.048c2.56-0.512,4.608-1.024,7.168-1.024c12.8,0,23.552,10.24,23.552,23.552
			C222.573,76.982,212.333,87.734,199.021,87.734z"/>
	</g>
</g>
<g>
	<g>
		<path class="st0" d="M323.949,227.51c-6.144-22.016-26.624-37.376-49.664-37.376c-15.36,0-29.696,6.656-39.424,18.432
			c-2.048-0.512-4.608-0.512-6.656-0.512c-18.432,0-33.792,14.848-33.792,33.792c0,18.944,14.848,33.792,33.792,33.792
			c2.048,0,4.608,0,6.656-0.512c9.728,11.776,24.064,18.432,39.424,18.432c9.216,0,17.92-2.56,26.112-7.168
			c5.632,4.608,12.8,7.168,20.48,7.168c17.92,0,32.768-14.848,32.768-32.768C353.645,243.382,340.845,229.046,323.949,227.51z
			 M320.877,282.806c-6.144,0-11.776-2.56-16.384-6.656c-1.024-1.024-2.56-1.536-3.584-1.536s-2.048,0.512-3.072,1.024
			c-7.168,4.608-14.848,7.68-23.552,7.68c-13.312,0-25.6-6.144-33.28-16.896c-1.536-2.048-3.584-2.56-5.632-2.048
			c-2.56,0.512-4.608,1.024-7.168,1.024c-12.8,0-23.552-10.24-23.552-23.552c0-12.8,10.24-23.552,23.552-23.552
			c2.56,0,5.12,0.512,7.168,1.024c2.048,0.512,4.608,0,5.632-2.048c7.68-10.752,19.968-16.896,33.28-16.896
			c19.456,0,36.352,13.824,40.448,33.28c0.512,2.56,2.56,4.096,5.12,4.096h0.512c12.288,0,22.528,10.24,22.528,22.528
			C343.405,273.078,333.165,282.806,320.877,282.806z"/>
	</g>
</g>
<g>
	<g>
		<path class="st0" d="M232.301,127.158c-3.584-3.072-7.68-4.096-12.8-4.096c-8.704,0.512-16.896,3.072-24.064,7.68
			c-6.656,4.096-13.824,8.704-22.528,15.36c-4.096,3.072-8.192,6.144-12.288,9.216c-2.56,2.048-5.12,4.096-7.68,5.632
			c-2.048,1.536-4.096,2.048-6.656,1.536c-1.536-0.512-3.072-1.024-5.12-2.048l-84.992-39.424c-2.56-1.024-5.632-2.56-8.704-3.584
			c-6.656-2.56-11.776-1.024-14.848,1.024c-5.632,3.584-9.728,7.68-13.312,12.8s-3.584,10.752,1.024,15.36
			c2.048,2.048,3.584,3.584,5.12,4.608c15.36,12.288,30.208,24.576,45.568,37.376c5.632,4.608,10.752,9.216,14.336,14.336
			c1.024,1.024,1.536,2.56,2.048,3.584L54.637,232.63c-3.584,2.56-6.656,5.632-10.24,8.192c-0.512,0-0.512-0.512-1.024-0.512
			l-4.608-2.56c-4.096-2.56-7.68-4.608-11.776-7.168c-5.12-3.072-10.752-2.56-15.36,0.512c-2.56,2.048-5.12,4.096-7.168,5.632
			c-5.12,4.096-5.632,9.216-2.56,14.336c0.512,1.024,1.536,2.56,2.56,3.584l7.168,11.264c9.728,14.848,18.944,29.184,28.672,44.032
			c1.024,2.048,2.56,3.584,4.608,4.608c1.536,1.024,5.632,4.096,10.752,2.56c5.632-1.536,10.24-5.12,13.312-10.24
			c2.56-4.608,3.072-9.728,2.048-15.872l-0.512-4.608c-0.512-3.584-1.024-7.168-1.536-10.752
			c13.312-8.704,26.624-16.896,39.936-25.6l6.144-4.096l1.024,2.048c2.56,5.632,5.12,10.752,6.656,16.384l14.848,57.856
			c1.024,3.584,2.048,6.656,3.072,9.728c2.048,6.144,6.144,9.216,11.776,9.216c1.536,0,3.072,0,5.12-0.512
			c1.536-0.512,2.56-1.024,4.096-1.536c7.68-3.072,12.8-8.192,15.36-14.848c1.536-4.096,2.048-8.704,2.048-14.848l-4.096-82.944
			c-0.512-6.656-0.512-13.312-1.024-20.48c-0.512-2.56,0-4.096,2.56-5.632l10.752-7.68c8.192-6.144,16.384-11.776,24.576-17.92
			c6.656-5.12,11.776-9.728,15.872-15.36c3.072-4.096,6.656-8.704,8.704-14.336C238.957,138.422,236.909,131.254,232.301,127.158z
			 M226.669,143.03c-1.536,4.608-4.608,8.192-7.168,12.288c-3.072,4.608-7.68,8.704-13.824,12.8
			c-8.192,6.144-16.384,11.776-24.576,17.92l-9.728,5.632c-5.632,3.584-8.192,8.704-7.68,15.872
			c0.512,6.656,0.512,13.312,1.024,19.968l3.584,82.944c0,4.608,0,7.68-1.024,10.24c-1.536,4.096-4.608,7.168-9.728,8.704
			c-1.024,0.512-2.048,0.512-3.072,1.024c-2.56,1.024-3.072,0.512-4.096-2.048c-1.024-3.072-2.048-6.144-2.56-9.216l-15.872-56.832
			c-2.048-6.656-4.608-12.288-7.68-18.432l-2.048-4.608l-4.096-7.168l-15.36,9.728c-13.824,8.704-27.648,17.92-41.984,26.624
			c-3.584,2.048-3.584,5.632-3.072,7.168c0.512,4.096,1.536,8.704,2.048,12.8l0.512,4.608c0.512,3.584,0.512,6.656-1.024,9.216
			c-1.536,2.56-3.584,4.096-6.656,5.12c0,0-0.512,0-2.048-1.024c-1.024-0.512-1.536-1.536-2.048-2.048
			c-9.728-14.848-18.944-29.184-28.672-44.032l-7.168-11.264c-0.512-1.024-1.536-2.048-2.048-3.072
			c-0.512-0.512-0.512-0.512-0.512-1.024l0.512-0.512c2.048-2.048,4.096-3.584,6.656-5.12c1.536-1.024,3.072-1.024,4.608,0
			c4.096,2.048,7.68,4.608,11.776,7.168l4.608,3.072c1.024,0.512,2.048,1.024,2.56,1.536c2.56,2.048,5.632,1.536,7.68,0
			c4.096-3.072,8.192-6.656,12.288-9.728l34.816-27.648l4.608-3.584l-2.048-3.584c-0.512-1.024-1.024-1.536-1.536-2.56
			c-1.024-2.048-2.048-4.096-3.072-5.632c-4.608-6.656-10.24-11.776-16.384-16.896c-15.36-12.288-30.208-24.576-45.568-37.376
			c-1.024-1.024-2.56-2.048-3.584-3.584c-1.024-1.536-1.024-1.536-0.512-2.56c3.072-4.096,6.656-7.168,10.752-10.24
			c1.024-0.512,2.56-1.024,5.632,0c3.072,1.024,5.632,2.048,8.192,3.584l84.48,39.936c2.048,1.024,4.608,2.048,6.656,2.56
			c5.12,1.536,10.752,0.512,15.36-3.072c2.56-2.048,5.12-4.096,7.68-6.144c4.096-3.072,7.68-6.144,11.776-8.704
			c8.704-6.144,15.36-10.752,22.016-14.848c5.632-3.584,12.288-5.632,19.456-6.144c3.072,0,4.608,0.512,5.632,1.536
			C226.669,137.91,227.181,140.47,226.669,143.03z"/>
	</g>
</g>
<g>
</g>
<g>
</g>
<g>
</g>
<g>
</g>
<g>
</g>
<g>
</g>
<g>
</g>
<g>
</g>
<g>
</g>
<g>
</g>
<g>
</g>
<g>
</g>
<g>
</g>
<g>
</g>
<g>
</g>
</svg>
