<svg version="1.1"
	 xmlns="http://www.w3.org/2000/svg" xmlns:xlink="http://www.w3.org/1999/xlink" xmlns:a="http://ns.adobe.com/AdobeSVGViewerExtensions/3.0/"
	 x="0px" y="0px" width="974.1px" height="499.8px" viewBox="0 0 974.1 499.8"
	 style="overflow:scroll;enable-background:new 0 0 974.1 499.8;" xml:space="preserve">
<style type="text/css">
	.st0{fill:#e53124;}
</style>
<defs>
</defs>
<g>
	<path class="st0" d="M502.2,343.8c0,2.8,0,5,0,7.1c0,44.2,0,88.3,0,132.5c0,12.2-10.4,19.5-21.4,15.3c-6.2-2.3-9.7-7.7-9.7-15.4
		c0-28.3,0-56.7,0-85c0-16,0-32,0-48c0-2,0-3.9,0-6.6c-2.7,0-4.8,0-6.9,0c-53,0-106-0.1-159,0.1c-8.1,0-14.1-2.2-19.5-8.6
		c-14-16.5-28.6-32.5-43-48.7c-7.9-8.9-8-15.9-0.3-24.7c15-17.2,30.1-34.3,45-51.6c4.7-5.5,10.5-7,17.3-7c52.2,0.1,104.3,0,156.5,0
		c1.8,0,3.7-0.1,5.5,0c3.5,0.3,4.6-1.4,4.5-4.8c-0.2-7-0.3-14,0-21c0.2-4.5-1.5-5.6-5.8-5.6c-37.5,0.1-75,0.1-112.5,0.1
		c-2,0-4,0-6,0c-9.9-0.4-16.4-6.5-16.5-16.4c-0.2-35.8-0.2-71.7,0-107.5c0-10.8,6.7-16.8,18.1-16.8c36.8-0.1,73.7,0,110.5,0
		c2.2,0,4.4-0.2,6.5,0c4.3,0.4,6.1-1.3,5.6-5.7c-0.3-3.1-0.1-6.3,0-9.5C471.2,6.9,478-0.1,486.6,0c9.3,0.1,15.5,6.4,15.6,15.8
		c0.1,3.8,0.1,7.7,0,11.5c-0.1,2.8,1.1,4,3.8,3.9c1.8-0.1,3.7,0,5.5,0c52,0,104,0.2,156-0.1c8.9-0.1,15.4,2.7,21.2,9.5
		C702.9,57,717.6,72.9,732.1,89c7.3,8.1,7.3,16.3,0,24.5c-15.1,17.1-30.4,34-45.5,51.2c-4.5,5.2-9.9,7.3-16.7,7.3
		c-53.5-0.1-107-0.1-160.5-0.1c-7.2,0-7.2,0-7.2,7c0,6,0.4,12-0.1,18c-0.4,5.3,1.7,6.4,6.6,6.4c37.7-0.2,75.3-0.1,113-0.1
		c2.3,0,4.7,0,7,0.2c8.9,0.7,14.5,6.5,14.6,15.3c0.1,36.3,0.1,72.7,0,109c0,10.1-6.4,15.9-17.1,16c-11.8,0.1-23.7,0-35.5,0
		c-27.2,0-54.3,0-81.5,0C507.1,343.8,505.2,343.8,502.2,343.8z M460.1,234.6c-49,0-98,0-147,0.1c-2.5,0-5.9,0.8-7.5,2.6
		c-10,10.9-19.6,22.2-29.5,33.3c-2.1,2.4-2.6,4-0.1,6.7c9.9,10.6,19.4,21.6,29.3,32.1c1.7,1.8,4.8,3.1,7.2,3.1
		c98,0.2,196,0.1,294,0.2c4.3,0,5.7-1,5.7-5.5c-0.2-22-0.1-44-0.1-66c0-6.5,0-6.5-6.5-6.5C557.1,234.6,508.6,234.6,460.1,234.6z
		 M700.8,101.1c-2.1-2.4-3.8-4.6-5.7-6.7c-8.5-9.4-17-18.7-25.4-28.3c-2.3-2.6-4.7-3.6-8.2-3.6c-97.8,0.1-195.6,0.1-293.4,0
		c-5,0-6.6,1.2-6.6,6.4c0.3,21.5,0.1,43,0.1,64.5c0,7.4,0,7.4,7.3,7.4c92,0,184,0,276,0c7.1,0,15.2,1.8,21.2-0.9
		c6-2.7,9.8-10.1,14.6-15.4C687.3,116.7,693.9,109,700.8,101.1z"/>
	<g>
		<g>
			<path class="st0" d="M892.2,137.9c13.7-4.7,28.7-3.1,45,4.8c16.3,7.9,27.3,18.6,33.1,32.1c5.8,13.5,5,27.9-2.4,43.2
				c-7.4,15.3-17.1,24.3-28.9,26.9c-11.9,2.6-26,0.2-42.5-7.4l-10.3,21.3l-36.1-17.5l22.3-46.2l15,7.3c11.7,5.6,20.9,8.5,27.7,8.4
				c6.8,0,12.1-3.8,15.8-11.4c2.5-5.1,3-9.9,1.6-14.4c-1.4-4.5-4.7-8.1-9.8-10.6c-5.2-2.5-9.9-2.9-14.3-1.3
				c-4.4,1.7-7.9,5.1-10.4,10.3L862,166C868.4,152,878.5,142.6,892.2,137.9z M841.7,307c-5.9-2.9-9.9-7.3-12-13.3
				c-2.1-6-1.7-11.9,1.2-17.8c2.9-5.9,7.3-9.9,13.3-12s11.9-1.7,17.8,1.2c5.9,2.9,9.9,7.3,12,13.3c2.1,6,1.7,11.9-1.2,17.8
				c-2.9,5.9-7.3,9.9-13.3,12C853.6,310.2,847.6,309.8,841.7,307z"/>
		</g>
		<g>
			<path class="st0" d="M82,199.1c-13.7,4.7-28.7,3.1-45-4.8c-16.3-7.9-27.3-18.6-33.1-32.1c-5.8-13.5-5-27.9,2.4-43.2
				c7.4-15.3,17.1-24.3,28.9-26.9c11.9-2.6,26-0.2,42.5,7.4l10.3-21.3L124,95.7l-22.3,46.2l-15-7.3c-11.7-5.6-20.9-8.5-27.7-8.4
				c-6.8,0-12.1,3.8-15.8,11.4c-2.5,5.1-3,9.9-1.6,14.4c1.4,4.5,4.7,8.1,9.8,10.6c5.2,2.5,9.9,2.9,14.3,1.3
				c4.4-1.7,7.9-5.1,10.4-10.3l36.1,17.5C105.7,185,95.7,194.4,82,199.1z M132.4,30c5.9,2.9,9.9,7.3,12,13.3
				c2.1,6,1.7,11.9-1.2,17.8c-2.9,5.9-7.3,9.9-13.3,12c-6,2.1-11.9,1.7-17.8-1.2c-5.9-2.9-9.9-7.3-12-13.3s-1.7-11.9,1.2-17.8
				c2.9-5.9,7.3-9.9,13.3-12C120.6,26.8,126.5,27.2,132.4,30z"/>
		</g>
	</g>
</g>
</svg>
