<?xml version="1.0"?>
<svg xmlns="http://www.w3.org/2000/svg" viewBox="0 -33 512 512" width="512px" height="512px"><path d="m494.5 84.378906h-105.9375v-8.710937c0-9.648438-7.851562-17.5-17.5-17.5h-9.90625c-4.140625 0-7.5 3.359375-7.5 7.5 0 4.144531 3.359375 7.5 7.5 7.5h9.90625c1.378906 0 2.5 1.121093 2.5 2.5v354.800781h-75.0625v-354.800781c0-1.378907 1.121094-2.5 2.5-2.5h29.84375c4.140625 0 7.5-3.355469 7.5-7.5 0-4.140625-3.359375-7.5-7.5-7.5h-29.84375c-9.648438 0-17.5 7.851562-17.5 17.5v8.710937h-134.101562v-70.878906c0-7.445312-6.058594-13.5-13.5-13.5h-13c-7.445313 0-13.5 6.054688-13.5 13.5v17.914062h-8.453126v-17.914062c0-7.445312-6.054687-13.5-13.5-13.5h-13c-7.445312 0-13.5 6.054688-13.5 13.5v70.878906h-43.445312c-9.648438 0-17.5 7.851563-17.5 17.5v16.957032c0 9.648437 7.851562 17.5 17.5 17.5h15.003906v133.242187c0 4.144531 3.359375 7.5 7.5 7.5s7.5-3.355469 7.5-7.5v-133.242187h19.996094v294.132812h-17.496094c-1.378906 0-2.5-1.121094-2.5-2.5v-128.078125c0-4.140625-3.359375-7.5-7.5-7.5s-7.5 3.359375-7.5 7.5v128.078125c0 9.648438 7.851563 17.5 17.5 17.5h428.996094c9.648438 0 17.5-7.851562 17.5-17.5v-65.578125c0-4.140625-3.359375-7.5-7.5-7.5s-7.5 3.359375-7.5 7.5v65.578125c0 1.378906-1.121094 2.5-2.5 2.5h-90.4375v-294.132812h92.9375v195.742187c0 4.144531 3.359375 7.5 7.5 7.5s7.5-3.355469 7.5-7.5v-195.867187c8.710938-.996094 15.5-8.402344 15.5-17.375v-16.957032c0-9.648437-7.851562-17.5-17.5-17.5zm-211 51.957032v294.132812h-29v-294.132812zm-207.554688-121.335938h10v23.914062c0 4.144532 3.359376 7.5 7.5 7.5h23.453126c4.140624 0 7.5-3.355468 7.5-7.5v-23.914062h10v69.378906h-10v-20.464844c0-4.140624-3.359376-7.5-7.5-7.5h-23.453126c-4.140624 0-7.5 3.359376-7.5 7.5v20.464844h-10zm33.453126 69.378906h-8.453126v-12.964844h8.453126zm-94.398438 34.457032v-16.957032c0-1.378906 1.121094-2.5 2.5-2.5h266v21.957032h-266c-1.378906 0-2.5-1.121094-2.5-2.5zm67.5 17.5h157v294.132812h-157zm414.5-17.5c0 1.378906-1.121094 2.5-2.5 2.5h-105.9375v-21.957032h105.9375c1.378906 0 2.5 1.121094 2.5 2.5zm0 0" fill="#4e4e56"/><path d="m135.21875 148.683594h-16.535156c-9.757813 0-17.699219 7.9375-17.699219 17.699218v16.53125c0 9.761719 7.941406 17.699219 17.699219 17.699219h16.535156c9.757812 0 17.695312-7.9375 17.695312-17.699219v-16.53125c0-9.757812-7.9375-17.699218-17.695312-17.699218zm2.695312 34.234375c0 1.484375-1.210937 2.695312-2.695312 2.695312h-16.535156c-1.488282 0-2.699219-1.210937-2.699219-2.695312v-16.535157c0-1.488281 1.210937-2.695312 2.699219-2.695312h16.535156c1.484375 0 2.695312 1.207031 2.695312 2.695312zm0 0" fill="#4e4e56"/><path d="m135.21875 218.324219h-16.535156c-9.757813 0-17.699219 7.9375-17.699219 17.695312v16.535157c0 9.757812 7.941406 17.695312 17.699219 17.695312h16.535156c9.757812 0 17.695312-7.9375 17.695312-17.695312v-16.535157c0-9.757812-7.9375-17.695312-17.695312-17.695312zm2.695312 34.230469c0 1.484374-1.210937 2.695312-2.695312 2.695312h-16.535156c-1.488282 0-2.699219-1.210938-2.699219-2.695312v-16.535157c0-1.484375 1.210937-2.695312 2.699219-2.695312h16.535156c1.484375 0 2.695312 1.210937 2.695312 2.695312zm0 0" fill="#4e4e56"/><path d="m135.21875 287.960938h-16.535156c-9.757813 0-17.699219 7.941406-17.699219 17.699218v16.53125c0 9.761719 7.941406 17.699219 17.699219 17.699219h16.535156c9.757812 0 17.695312-7.9375 17.695312-17.699219v-16.53125c0-9.757812-7.9375-17.699218-17.695312-17.699218zm2.695312 34.230468c0 1.488282-1.210937 2.699219-2.695312 2.699219h-16.535156c-1.488282 0-2.699219-1.210937-2.699219-2.699219v-16.53125c0-1.488281 1.210937-2.699218 2.699219-2.699218h16.535156c1.484375 0 2.695312 1.210937 2.695312 2.699218zm0 0" fill="#4e4e56"/><path d="m135.21875 357.601562h-16.535156c-9.757813 0-17.699219 7.9375-17.699219 17.695313v16.53125c0 9.761719 7.941406 17.699219 17.699219 17.699219h16.535156c9.757812 0 17.695312-7.9375 17.695312-17.699219v-16.53125c0-9.757813-7.9375-17.695313-17.695312-17.695313zm2.695312 34.230469c0 1.488281-1.210937 2.695313-2.695312 2.695313h-16.535156c-1.488282 0-2.699219-1.207032-2.699219-2.695313v-16.535156c0-1.484375 1.210937-2.695313 2.699219-2.695313h16.535156c1.484375 0 2.695312 1.210938 2.695312 2.695313zm0 0" fill="#4e4e56"/><path d="m209.566406 148.683594h-16.53125c-9.757812 0-17.699218 7.9375-17.699218 17.699218v16.53125c0 9.761719 7.941406 17.699219 17.699218 17.699219h16.53125c9.761719 0 17.699219-7.9375 17.699219-17.699219v-16.53125c0-9.757812-7.9375-17.699218-17.699219-17.699218zm2.699219 34.234375c0 1.484375-1.210937 2.695312-2.699219 2.695312h-16.53125c-1.488281 0-2.699218-1.210937-2.699218-2.695312v-16.535157c0-1.488281 1.210937-2.695312 2.699218-2.695312h16.53125c1.488282 0 2.699219 1.207031 2.699219 2.695312zm0 0" fill="#4e4e56"/><path d="m209.566406 218.324219h-16.53125c-9.757812 0-17.699218 7.9375-17.699218 17.695312v16.535157c0 9.757812 7.941406 17.695312 17.699218 17.695312h16.53125c9.761719 0 17.699219-7.9375 17.699219-17.695312v-16.535157c0-9.757812-7.9375-17.695312-17.699219-17.695312zm2.699219 34.230469c0 1.484374-1.210937 2.695312-2.699219 2.695312h-16.53125c-1.488281 0-2.699218-1.210938-2.699218-2.695312v-16.535157c0-1.484375 1.210937-2.695312 2.699218-2.695312h16.53125c1.488282 0 2.699219 1.210937 2.699219 2.695312zm0 0" fill="#4e4e56"/><path d="m209.566406 287.960938h-16.53125c-9.757812 0-17.699218 7.941406-17.699218 17.699218v16.53125c0 9.761719 7.941406 17.699219 17.699218 17.699219h16.53125c9.761719 0 17.699219-7.9375 17.699219-17.699219v-16.53125c0-9.757812-7.9375-17.699218-17.699219-17.699218zm2.699219 34.230468c0 1.488282-1.210937 2.699219-2.699219 2.699219h-16.53125c-1.488281 0-2.699218-1.210937-2.699218-2.699219v-16.53125c0-1.488281 1.210937-2.699218 2.699218-2.699218h16.53125c1.488282 0 2.699219 1.210937 2.699219 2.699218zm0 0" fill="#4e4e56"/><path d="m209.566406 357.601562h-16.53125c-9.757812 0-17.699218 7.9375-17.699218 17.695313v16.53125c0 9.761719 7.941406 17.699219 17.699218 17.699219h16.53125c9.761719 0 17.699219-7.9375 17.699219-17.699219v-16.53125c0-9.757813-7.9375-17.695313-17.699219-17.695313zm2.699219 34.230469c0 1.488281-1.210937 2.695313-2.699219 2.695313h-16.53125c-1.488281 0-2.699218-1.207032-2.699218-2.695313v-16.535156c0-1.484375 1.210937-2.695313 2.699218-2.695313h16.53125c1.488282 0 2.699219 1.210938 2.699219 2.695313zm0 0" fill="#4e4e56"/><path d="m460.546875 166.382812c0-9.761718-7.941406-17.699218-17.699219-17.699218h-16.535156c-9.757812 0-17.695312 7.9375-17.695312 17.699218v16.53125c0 9.761719 7.9375 17.699219 17.695312 17.699219h16.535156c9.757813 0 17.699219-7.9375 17.699219-17.699219zm-15 16.535157c0 1.484375-1.210937 2.695312-2.699219 2.695312h-16.535156c-1.484375 0-2.695312-1.210937-2.695312-2.695312v-16.535157c0-1.488281 1.210937-2.695312 2.695312-2.695312h16.535156c1.488282 0 2.699219 1.207031 2.699219 2.695312zm0 0" fill="#4e4e56"/><path d="m460.546875 236.019531c0-9.757812-7.941406-17.695312-17.699219-17.695312h-16.535156c-9.757812 0-17.695312 7.9375-17.695312 17.695312v16.535157c0 9.757812 7.9375 17.695312 17.695312 17.695312h16.535156c9.757813 0 17.699219-7.9375 17.699219-17.695312zm-15 16.535157c0 1.484374-1.210937 2.695312-2.699219 2.695312h-16.535156c-1.484375 0-2.695312-1.210938-2.695312-2.695312v-16.535157c0-1.484375 1.210937-2.695312 2.695312-2.695312h16.535156c1.488282 0 2.699219 1.210937 2.699219 2.695312zm0 0" fill="#4e4e56"/><path d="m460.546875 305.660156c0-9.757812-7.941406-17.699218-17.699219-17.699218h-16.535156c-9.757812 0-17.695312 7.941406-17.695312 17.699218v16.53125c0 9.761719 7.9375 17.699219 17.695312 17.699219h16.535156c9.757813 0 17.699219-7.9375 17.699219-17.699219zm-15 16.53125c0 1.488282-1.210937 2.699219-2.699219 2.699219h-16.535156c-1.484375 0-2.695312-1.210937-2.695312-2.699219v-16.53125c0-1.488281 1.210937-2.699218 2.695312-2.699218h16.535156c1.488282 0 2.699219 1.210937 2.699219 2.699218zm0 0" fill="#4e4e56"/><path d="m442.847656 357.601562h-16.535156c-9.757812 0-17.695312 7.9375-17.695312 17.695313v16.53125c0 9.761719 7.9375 17.699219 17.695312 17.699219h16.535156c9.757813 0 17.699219-7.9375 17.699219-17.699219v-16.53125c0-9.757813-7.941406-17.695313-17.699219-17.695313zm2.699219 34.230469c0 1.488281-1.210937 2.695313-2.699219 2.695313h-16.535156c-1.484375 0-2.695312-1.207032-2.695312-2.695313v-16.535156c0-1.484375 1.210937-2.695313 2.695312-2.695313h16.535156c1.488282 0 2.699219 1.210938 2.699219 2.695313zm0 0" fill="#4e4e56"/><path d="m325.832031 166.109375c0-4.144531-3.355469-7.5-7.5-7.5-4.140625 0-7.5 3.355469-7.5 7.5v19.003906c0 4.144531 3.359375 7.5 7.5 7.5 4.144531 0 7.5-3.355469 7.5-7.5zm0 0" fill="#4e4e56"/><path d="m325.832031 234.785156c0-4.144531-3.355469-7.5-7.5-7.5-4.140625 0-7.5 3.355469-7.5 7.5v19.003906c0 4.144532 3.359375 7.5 7.5 7.5 4.144531 0 7.5-3.355468 7.5-7.5zm0 0" fill="#4e4e56"/><path d="m325.832031 303.460938c0-4.140626-3.355469-7.5-7.5-7.5-4.140625 0-7.5 3.359374-7.5 7.5v19.007812c0 4.140625 3.359375 7.5 7.5 7.5 4.144531 0 7.5-3.359375 7.5-7.5zm0 0" fill="#4e4e56"/><path d="m318.332031 364.636719c-4.140625 0-7.5 3.359375-7.5 7.5v19.007812c0 4.140625 3.359375 7.5 7.5 7.5 4.144531 0 7.5-3.359375 7.5-7.5v-19.007812c0-4.140625-3.355469-7.5-7.5-7.5zm0 0" fill="#4e4e56"/></svg>
