<svg version="1.1"
	 xmlns="http://www.w3.org/2000/svg" xmlns:xlink="http://www.w3.org/1999/xlink" xmlns:a="http://ns.adobe.com/AdobeSVGViewerExtensions/3.0/"
	 x="0px" y="0px" width="830.7px" height="300px" viewBox="0 0 830.7 300" style="enable-background:new 0 0 830.7 300;"
	 xml:space="preserve">
<style type="text/css">
	.st0{fill:#ffc600}
</style>
<defs>
</defs>
<g>
	<path class="st0" d="M224.8,201.5v-15h70.5c2.3-9.4,3.8-19,4.3-29h-74.8v-15h74.8c-0.5-10-2-19.6-4.3-29h-70.5v-15h65.9
		C269.7,41,214.6,0,149.8,0S29.9,41,8.9,98.5h65.9v15H4.3c-2.3,9.4-3.8,19-4.3,29h74.8v15H0c0.5,10,2,19.6,4.3,29h70.5v15H8.9
		C29.9,259,85.1,300,149.8,300s119.9-41,140.9-98.5H224.8z M149.8,182.9L116.9,150l32.9-32.9l32.9,32.9L149.8,182.9z"/>
	<g>
		<path class="st0" d="M384.3,133.9l-17.7-28.3h-8.1v28.3H347v-71h25c8.1,0,14.3,2,18.4,5.9c4.2,4,6.3,9.2,6.3,15.7
			c0,5.6-1.6,10.1-4.7,13.7c-3.1,3.6-7.6,5.8-13.5,6.8l18.6,28.9H384.3z M358.4,97.4h12.7c9.2,0,13.9-4.1,13.9-12.3
			c0-3.9-1.1-6.9-3.4-9.1c-2.2-2.2-5.7-3.3-10.5-3.3h-12.7V97.4z"/>
		<path class="st0" d="M457.1,108.5h-42.6c0.2,5.7,1.8,9.9,4.7,12.7c2.9,2.7,6.6,4.1,11,4.1c3.8,0,7.1-1,9.7-2.9
			c2.6-1.9,4.3-4.5,4.9-7.7H457c-0.7,3.9-2.3,7.3-4.6,10.4c-2.3,3-5.4,5.4-9.2,7.1c-3.8,1.7-7.9,2.6-12.6,2.6
			c-5.4,0-10.1-1.1-14.2-3.4c-4.1-2.3-7.4-5.6-9.7-9.9c-2.3-4.3-3.5-9.3-3.5-15.2c0-5.8,1.2-10.8,3.5-15.1c2.3-4.3,5.6-7.6,9.7-9.9
			c4.1-2.3,8.9-3.4,14.2-3.4c5.4,0,10.2,1.1,14.2,3.4c4.1,2.2,7.2,5.3,9.3,9.2c2.2,3.9,3.3,8.3,3.3,13.1
			C457.5,105.4,457.4,107.1,457.1,108.5z M444.1,94.2c-1.4-2.4-3.3-4.3-5.6-5.4c-2.4-1.2-5-1.8-7.8-1.8c-4.5,0-8.2,1.4-11.3,4.1
			c-3,2.7-4.7,6.8-4.9,12.2H446C446.1,99.6,445.5,96.6,444.1,94.2z"/>
		<path class="st0" d="M510,83.5c4.7,3.8,7.6,8.9,8.7,15.4h-12.2c-0.7-3.5-2.3-6.2-4.9-8.2c-2.6-2-5.8-3-9.7-3
			c-4.4,0-8.1,1.6-11.1,4.7c-3,3.1-4.4,7.7-4.4,13.7c0,6,1.5,10.6,4.4,13.8c2.9,3.2,6.6,4.7,11.1,4.7c3.9,0,7.1-1,9.7-3
			c2.6-2,4.2-4.8,4.9-8.2h12.2c-1.1,6.5-4.1,11.7-8.7,15.5c-4.7,3.8-10.6,5.7-17.8,5.7c-5.4,0-10.1-1.1-14.2-3.4
			c-4.1-2.3-7.4-5.6-9.7-9.9c-2.3-4.3-3.5-9.3-3.5-15.2c0-5.8,1.2-10.8,3.5-15.1c2.3-4.3,5.6-7.6,9.7-9.9c4.1-2.3,8.9-3.4,14.2-3.4
			C499.4,77.8,505.3,79.7,510,83.5z"/>
		<path class="st0" d="M579.9,108.5h-42.6c0.2,5.7,1.8,9.9,4.7,12.7c2.9,2.7,6.6,4.1,11,4.1c3.8,0,7.1-1,9.7-2.9
			c2.6-1.9,4.3-4.5,4.9-7.7h12.3c-0.7,3.9-2.3,7.3-4.6,10.4c-2.3,3-5.4,5.4-9.2,7.1s-7.9,2.6-12.6,2.6c-5.4,0-10.1-1.1-14.2-3.4
			c-4.1-2.3-7.4-5.6-9.7-9.9c-2.3-4.3-3.5-9.3-3.5-15.2c0-5.8,1.2-10.8,3.5-15.1c2.3-4.3,5.6-7.6,9.7-9.9c4.1-2.3,8.9-3.4,14.2-3.4
			c5.4,0,10.2,1.1,14.2,3.4c4.1,2.2,7.2,5.3,9.3,9.2c2.2,3.9,3.3,8.3,3.3,13.1C580.3,105.4,580.2,107.1,579.9,108.5z M566.9,94.2
			c-1.4-2.4-3.3-4.3-5.6-5.4c-2.4-1.2-5-1.8-7.8-1.8c-4.5,0-8.2,1.4-11.3,4.1c-3,2.7-4.7,6.8-4.9,12.2h31.5
			C568.9,99.6,568.2,96.6,566.9,94.2z"/>
		<path class="st0" d="M635,81.2c3.8,2.3,6.8,5.6,8.9,9.9c2.1,4.3,3.2,9.3,3.2,15.1c0,5.8-1.1,10.9-3.2,15.2
			c-2.1,4.3-5.1,7.6-8.9,9.9c-3.8,2.3-8.1,3.4-12.9,3.4c-5,0-9.3-1.2-12.9-3.7c-3.6-2.5-6-5.8-7.4-9.9v39.2h-11.5V78.5h11.5v12.9
			c1.4-4.1,3.9-7.4,7.4-9.9c3.6-2.5,7.8-3.7,12.9-3.7C626.9,77.8,631.2,79,635,81.2z M609.9,90.1c-2.5,1.5-4.6,3.7-6,6.4
			c-1.5,2.8-2.2,6-2.2,9.6c0,3.7,0.7,6.9,2.2,9.7c1.5,2.7,3.5,4.9,6,6.4c2.5,1.5,5.4,2.3,8.6,2.3c5.1,0,9.2-1.6,12.3-4.9
			c3.1-3.3,4.6-7.7,4.6-13.4c0-5.6-1.5-10.1-4.6-13.4c-3.1-3.3-7.2-4.9-12.3-4.9C615.4,87.9,612.5,88.6,609.9,90.1z"/>
		<path class="st0" d="M685,124v10h-7c-5.9,0-10.4-1.4-13.4-4.3c-3.1-2.8-4.6-7.6-4.6-14.2V88.3h-7.9v-9.8h7.9V64.8h11.6v13.8h13.4
			v9.8h-13.4v27.3c0,3.2,0.6,5.3,1.8,6.5c1.2,1.2,3.2,1.8,6.2,1.8H685z"/>
		<path class="st0" d="M695.2,57.6c1.3-1.3,3.1-1.9,5.3-1.9s4,0.6,5.4,1.9c1.4,1.3,2.1,2.9,2.1,4.8c0,1.9-0.7,3.5-2.1,4.7
			c-1.4,1.2-3.2,1.8-5.4,1.8s-4-0.6-5.3-1.8c-1.3-1.2-2-2.8-2-4.7C693.2,60.5,693.9,58.9,695.2,57.6z M706.3,78.5v55.4h-11.5V78.5
			H706.3z"/>
		<path class="st0" d="M741.8,122.1l15.7-43.5h12.3l-21.1,55.4h-13.9l-21.1-55.4H726L741.8,122.1z"/>
		<path class="st0" d="M817,81.2c4.3,2.3,7.6,5.6,10.1,9.9c2.4,4.3,3.6,9.3,3.6,15.1c0,5.8-1.2,10.9-3.6,15.2
			c-2.4,4.3-5.8,7.6-10.1,9.9c-4.3,2.3-9.1,3.4-14.5,3.4c-5.4,0-10.2-1.1-14.4-3.4c-4.3-2.3-7.6-5.6-10.1-9.9
			c-2.4-4.3-3.7-9.4-3.7-15.1c0-5.8,1.2-10.8,3.7-15.1c2.4-4.3,5.8-7.6,10.1-9.9c4.3-2.3,9.1-3.4,14.4-3.4
			C807.9,77.8,812.8,79,817,81.2z M794.4,89.8c-2.5,1.3-4.5,3.4-6,6.2c-1.5,2.8-2.3,6.2-2.3,10.2c0,4.1,0.8,7.5,2.3,10.3
			c1.5,2.7,3.5,4.8,6,6.1c2.5,1.3,5.2,2,8.1,2c2.9,0,5.7-0.7,8.1-2c2.5-1.3,4.5-3.4,6-6.1c1.5-2.7,2.3-6.2,2.3-10.3
			c0-4-0.8-7.4-2.3-10.2c-1.5-2.8-3.5-4.8-6-6.2c-2.5-1.3-5.2-2-8.1-2C799.6,87.8,796.9,88.4,794.4,89.8z"/>
		<path class="st0" d="M400.3,178.5c5.8,4.4,9.7,10.4,11.7,18h-12.2c-1.7-4.3-4.3-7.7-8-10.2c-3.7-2.5-8.1-3.8-13.4-3.8
			c-4.2,0-8,1-11.3,3.1c-3.3,2.1-5.9,5-7.8,8.9s-2.9,8.4-2.9,13.5c0,5.1,1,9.6,2.9,13.4c1.9,3.9,4.5,6.8,7.8,8.9
			c3.3,2.1,7.1,3.1,11.3,3.1c5.3,0,9.8-1.3,13.4-3.8c3.7-2.5,6.3-5.9,8-10.1H412c-2,7.6-5.9,13.6-11.7,17.9
			c-5.8,4.4-13,6.6-21.7,6.6c-6.7,0-12.6-1.5-17.8-4.6c-5.2-3-9.1-7.3-12-12.8c-2.8-5.5-4.2-11.7-4.2-18.7c0-7,1.4-13.3,4.2-18.7
			c2.8-5.5,6.8-9.7,12-12.8c5.2-3.1,11.1-4.6,17.8-4.6C387.3,171.9,394.6,174.1,400.3,178.5z"/>
		<path class="st0" d="M462.3,190.9c4.3,2.3,7.6,5.6,10.1,9.9c2.4,4.3,3.6,9.3,3.6,15.1c0,5.8-1.2,10.9-3.6,15.2
			c-2.4,4.3-5.8,7.6-10.1,9.9c-4.3,2.3-9.1,3.4-14.5,3.4c-5.4,0-10.2-1.1-14.4-3.4c-4.3-2.3-7.6-5.6-10.1-9.9
			c-2.4-4.3-3.7-9.4-3.7-15.1c0-5.8,1.2-10.8,3.7-15.1c2.4-4.3,5.8-7.6,10.1-9.9c4.3-2.3,9.1-3.4,14.4-3.4
			C453.1,187.5,458,188.6,462.3,190.9z M439.6,199.5c-2.5,1.3-4.5,3.4-6,6.2c-1.5,2.8-2.3,6.2-2.3,10.2c0,4.1,0.8,7.5,2.3,10.3
			c1.5,2.7,3.5,4.8,6,6.1c2.5,1.3,5.2,2,8.1,2c2.9,0,5.7-0.7,8.1-2c2.5-1.3,4.5-3.4,6-6.1c1.5-2.7,2.3-6.2,2.3-10.3
			c0-4-0.8-7.4-2.3-10.2c-1.5-2.8-3.5-4.8-6-6.2c-2.5-1.3-5.2-2-8.1-2C444.8,197.4,442.1,198.1,439.6,199.5z"/>
		<path class="st0" d="M497.5,169.2v74.4H486v-74.4H497.5z"/>
		<path class="st0" d="M550.1,190.9c4.3,2.3,7.6,5.6,10.1,9.9c2.4,4.3,3.6,9.3,3.6,15.1c0,5.8-1.2,10.9-3.6,15.2
			c-2.4,4.3-5.8,7.6-10.1,9.9c-4.3,2.3-9.1,3.4-14.5,3.4c-5.4,0-10.2-1.1-14.4-3.4c-4.3-2.3-7.6-5.6-10.1-9.9
			c-2.4-4.3-3.7-9.4-3.7-15.1c0-5.8,1.2-10.8,3.7-15.1c2.4-4.3,5.8-7.6,10.1-9.9c4.3-2.3,9.1-3.4,14.4-3.4
			C541,187.5,545.8,188.6,550.1,190.9z M527.5,199.5c-2.5,1.3-4.5,3.4-6,6.2c-1.5,2.8-2.3,6.2-2.3,10.2c0,4.1,0.8,7.5,2.3,10.3
			c1.5,2.7,3.5,4.8,6,6.1c2.5,1.3,5.2,2,8.1,2c2.9,0,5.7-0.7,8.1-2c2.5-1.3,4.5-3.4,6-6.1c1.5-2.7,2.3-6.2,2.3-10.3
			c0-4-0.8-7.4-2.3-10.2c-1.5-2.8-3.5-4.8-6-6.2c-2.5-1.3-5.2-2-8.1-2C532.7,197.4,530,198.1,527.5,199.5z"/>
		<path class="st0" d="M658.9,193.5c3.9,4.2,5.9,10.1,5.9,17.8v32.3h-11.5v-31.1c0-4.8-1.2-8.6-3.6-11.2c-2.4-2.6-5.7-4-10-4
			c-4.5,0-8.1,1.4-10.7,4.3c-2.6,2.8-4,7-4,12.5v29.5h-11.5v-31.1c0-4.8-1.2-8.6-3.6-11.2c-2.4-2.6-5.7-4-10-4
			c-4.5,0-8.1,1.4-10.7,4.3c-2.6,2.8-4,7-4,12.5v29.5h-11.5v-55.4h11.5v11.6c1.4-4,3.8-7.1,7-9.2c3.3-2.1,7.1-3.2,11.6-3.2
			c4.6,0,8.6,1.1,12,3.4c3.4,2.3,5.8,5.6,7.4,9.9c1.6-4.2,4.2-7.4,7.7-9.8c3.6-2.3,7.6-3.5,12.1-3.5
			C649.7,187.3,654.9,189.4,658.9,193.5z"/>
		<path class="st0" d="M721.8,190.9c3.8,2.3,6.8,5.6,8.9,9.9c2.1,4.3,3.2,9.3,3.2,15.1c0,5.8-1.1,10.9-3.2,15.2
			c-2.1,4.3-5.1,7.6-8.9,9.9c-3.8,2.3-8.1,3.4-12.9,3.4c-5,0-9.3-1.2-12.9-3.7c-3.6-2.5-6-5.8-7.4-9.9v12.9h-11.5v-74.4h11.5v31.9
			c1.4-4.1,3.9-7.4,7.4-9.9c3.6-2.5,7.8-3.7,12.9-3.7C713.7,187.5,718,188.6,721.8,190.9z M696.7,199.8c-2.5,1.5-4.6,3.7-6,6.4
			c-1.5,2.8-2.2,6-2.2,9.6c0,3.7,0.7,6.9,2.2,9.7c1.5,2.7,3.5,4.9,6,6.4c2.5,1.5,5.4,2.3,8.6,2.3c5.1,0,9.2-1.6,12.3-4.9
			c3.1-3.3,4.6-7.7,4.6-13.4c0-5.6-1.5-10.1-4.6-13.4c-3.1-3.3-7.2-4.9-12.3-4.9C702.1,197.5,699.3,198.3,696.7,199.8z"/>
		<path class="st0" d="M744.4,167.3c1.3-1.3,3.1-1.9,5.3-1.9s4,0.6,5.4,1.9c1.4,1.3,2.1,2.9,2.1,4.8c0,1.9-0.7,3.5-2.1,4.7
			c-1.4,1.2-3.2,1.8-5.4,1.8s-4-0.6-5.3-1.8s-2-2.8-2-4.7C742.3,170.2,743,168.6,744.4,167.3z M755.4,188.2v55.4H744v-55.4H755.4z"
			/>
		<path class="st0" d="M803.4,191.2c3.6,2.5,6.1,5.8,7.5,9.9v-12.9h11.5v55.4h-11.5v-12.9c-1.5,4.1-4,7.4-7.5,9.9
			c-3.6,2.5-7.8,3.7-12.9,3.7c-4.8,0-9.1-1.1-12.9-3.4c-3.8-2.3-6.8-5.6-8.9-9.9c-2.1-4.3-3.2-9.4-3.2-15.2c0-5.8,1.1-10.8,3.2-15.1
			c2.1-4.3,5.1-7.6,8.9-9.9c3.8-2.3,8.1-3.4,12.9-3.4C795.5,187.5,799.8,188.7,803.4,191.2z M781.8,202.4c-3.1,3.3-4.6,7.7-4.6,13.4
			c0,5.7,1.5,10.2,4.6,13.4c3,3.3,7.1,4.9,12.2,4.9c3.2,0,6.1-0.8,8.6-2.3c2.5-1.5,4.6-3.6,6-6.4c1.5-2.7,2.2-6,2.2-9.7
			c0-3.6-0.7-6.8-2.2-9.6c-1.5-2.8-3.5-4.9-6-6.4c-2.5-1.5-5.4-2.3-8.6-2.3C788.9,197.5,784.9,199.2,781.8,202.4z"/>
	</g>
</g>
</svg>
