<svg version="1.1"
	 xmlns="http://www.w3.org/2000/svg" xmlns:xlink="http://www.w3.org/1999/xlink" xmlns:a="http://ns.adobe.com/AdobeSVGViewerExtensions/3.0/"
	 x="0px" y="0px" width="500.9px" height="501.2px" viewBox="0 0 500.9 501.2" style="enable-background:new 0 0 500.9 501.2;"
	 xml:space="preserve">
<style type="text/css">
	.st0{fill:#E63020;}
	.st1{fill:#43B7E8;}
	.st2{fill:#9AC31C;}
	.st3{fill:#EC6907;}
	.st4{fill:#FFC600;}
</style>
<defs>
</defs>
<g>
	<g>
		<polygon class="st0" points="99.9,41.9 114.9,56.9 129.9,41.9 143.2,55.2 143.2,44.8 129.9,31.5 114.9,46.5 99.9,31.5 84.9,46.5 
			71.6,33.3 71.6,43.7 84.9,56.9 		"/>
		<polygon class="st0" points="129.9,14.9 114.9,29.9 99.9,14.9 84.9,29.9 71.6,16.6 71.6,26.8 84.9,40.1 99.9,25.1 114.9,40.1 
			129.9,25.1 143.2,38.3 143.2,28.1 		"/>
		<polygon class="st0" points="84.9,23.4 99.9,8.4 114.9,23.4 129.9,8.4 143.2,21.7 143.2,0 71.6,0 71.6,10.2 		"/>
		<polygon class="st0" points="129.9,48.4 114.9,63.4 99.9,48.4 84.9,63.4 71.6,50.1 71.6,71.6 143.2,71.6 143.2,61.6 		"/>
	</g>
	<g>
		<path class="st1" d="M207.6,126c-1.7-1.4-3.1-2.5-6.1-2.5c-2.9,0-4.3,1.1-6.1,2.5c-2,1.6-4.4,3.6-9,3.6c-4.6,0-7-2-8.9-3.6
			c-1.7-1.4-3.1-2.5-6.1-2.5c-2.9,0-4.3,1.1-6.1,2.5c-2,1.6-4.4,3.6-9,3.6c-4.6,0-7-2-8.9-3.6c-1.4-1.1-2.5-2-4.3-2.4v19.6h71.6
			v-13.7C211.3,129,209.3,127.4,207.6,126z"/>
		<path class="st1" d="M150.4,89c1.7,1.4,3.1,2.5,6.1,2.5s4.3-1.1,6.1-2.5c2-1.6,4.4-3.6,9-3.6s7,2,8.9,3.6c1.7,1.4,3.1,2.5,6.1,2.5
			c2.9,0,4.3-1.1,6.1-2.5c2-1.6,4.4-3.6,9-3.6c4.6,0,7,2,9,3.6c1.4,1.1,2.5,2,4.3,2.4V71.6h-71.6v13.9C146.7,86,148.7,87.6,150.4,89
			z"/>
		<path class="st1" d="M207.6,92.5c-1.7-1.4-3.1-2.5-6.1-2.5c-2.9,0-4.3,1.1-6.1,2.5c-2,1.6-4.4,3.6-9,3.6c-4.6,0-7-2-8.9-3.6
			c-1.7-1.4-3.1-2.5-6.1-2.5c-2.9,0-4.3,1.1-6.1,2.5c-2,1.6-4.4,3.6-9,3.6c-4.6,0-7-2-8.9-3.6c-1.4-1.1-2.5-2-4.3-2.4v12
			c3.5,0.4,5.5,2.1,7.2,3.4c1.7,1.4,3.1,2.5,6.1,2.5s4.3-1.1,6.1-2.5c2-1.6,4.4-3.6,9-3.6s7,2,8.9,3.6c1.7,1.4,3.1,2.5,6.1,2.5
			c2.9,0,4.3-1.1,6.1-2.5c2-1.6,4.4-3.6,9-3.6c4.6,0,7,2,9,3.6c1.4,1.1,2.5,2,4.3,2.4V96C211.3,95.5,209.3,93.9,207.6,92.5z"/>
		<path class="st1" d="M201.5,106.6c-2.9,0-4.3,1.1-6.1,2.5c-2,1.6-4.4,3.6-9,3.6c-4.6,0-7-2-8.9-3.6c-1.7-1.4-3.1-2.5-6.1-2.5
			c-2.9,0-4.3,1.1-6.1,2.5c-2,1.6-4.4,3.6-9,3.6c-4.6,0-7-2-8.9-3.6c-1.4-1.1-2.5-2-4.3-2.4V119c3.5,0.4,5.5,2.1,7.2,3.4
			c1.7,1.4,3.1,2.5,6.1,2.5s4.3-1.1,6.1-2.5c2-1.6,4.4-3.6,9-3.6s7,2,8.9,3.6c1.7,1.4,3.1,2.5,6.1,2.5c2.9,0,4.3-1.1,6.1-2.5
			c2-1.6,4.4-3.6,9-3.6c4.6,0,7,2,9,3.6c1.4,1.1,2.5,2,4.3,2.4v-12.2c-3.5-0.4-5.5-2.1-7.2-3.4C205.9,107.8,204.5,106.6,201.5,106.6
			z"/>
	</g>
	<g>
		<rect y="93" class="st2" width="71.6" height="12.1"/>
		<rect y="71.6" class="st2" width="71.6" height="16.9"/>
		<rect y="109.7" class="st2" width="71.6" height="12.3"/>
		<rect y="126.5" class="st2" width="71.6" height="16.7"/>
	</g>
	<g>
		<rect x="181.3" class="st2" width="12.1" height="71.6"/>
		<rect x="164.4" class="st2" width="12.3" height="71.6"/>
		<rect x="197.9" class="st2" width="16.9" height="71.6"/>
		<rect x="143.2" class="st2" width="16.7" height="71.6"/>
	</g>
	<g>
		<polygon class="st3" points="286.4,163.6 286.4,146.5 218.1,214.8 235.2,214.8 		"/>
		<polygon class="st3" points="214.8,194.3 214.8,211.6 283.2,143.2 265.9,143.2 		"/>
		<polygon class="st3" points="259.4,143.2 214.8,143.2 214.8,187.8 		"/>
		<polygon class="st3" points="241.6,214.8 286.4,214.8 286.4,170 		"/>
	</g>
	<g>
		<polygon class="st3" points="122.8,214.8 140.2,214.8 71.6,146.2 71.6,163.6 		"/>
		<polygon class="st3" points="143.2,187.8 143.2,143.2 98.6,143.2 		"/>
		<polygon class="st3" points="71.6,170 71.6,214.8 116.4,214.8 		"/>
		<polygon class="st3" points="92.2,143.2 75.1,143.2 143.2,211.3 143.2,194.3 		"/>
	</g>
	<g>
		<polygon class="st0" points="113.5,401.3 128.5,386.3 113.5,371.3 126.8,358 116.4,358 103.1,371.3 118.1,386.3 103.1,401.3 
			118.1,416.3 104.9,429.6 115.3,429.6 128.5,416.3 		"/>
		<polygon class="st0" points="86.5,371.3 101.5,386.3 86.5,401.3 101.5,416.3 88.2,429.6 98.4,429.6 111.7,416.3 96.7,401.3 
			111.7,386.3 96.7,371.3 109.9,358 99.7,358 		"/>
		<polygon class="st0" points="95,416.3 80,401.3 95,386.3 80,371.3 93.3,358 71.6,358 71.6,429.6 81.8,429.6 		"/>
		<polygon class="st0" points="120,371.3 135,386.3 120,401.3 135,416.3 121.7,429.6 143.2,429.6 143.2,358 133.2,358 		"/>
	</g>
	<g>
		<path class="st1" d="M197.6,293.6c-1.4,1.7-2.5,3.1-2.5,6.1c0,2.9,1.1,4.3,2.5,6.1c1.6,2,3.6,4.4,3.6,9c0,4.6-2,7-3.6,8.9
			c-1.4,1.7-2.5,3.1-2.5,6.1c0,2.9,1.1,4.3,2.5,6.1c1.6,2,3.6,4.4,3.6,9c0,4.6-2,7-3.6,8.9c-1.1,1.4-2,2.5-2.4,4.3h19.6v-71.6h-13.7
			C200.7,289.9,199,291.9,197.6,293.6z"/>
		<path class="st1" d="M160.6,350.8c1.4-1.7,2.5-3.1,2.5-6.1c0-2.9-1.1-4.3-2.5-6.1c-1.6-2-3.6-4.4-3.6-9s2-7,3.6-8.9
			c1.4-1.7,2.5-3.1,2.5-6.1c0-2.9-1.1-4.3-2.5-6.1c-1.6-2-3.6-4.4-3.6-9s2-7,3.6-9c1.1-1.4,2-2.5,2.4-4.3h-19.8V358h13.9
			C157.6,354.5,159.2,352.5,160.6,350.8z"/>
		<path class="st1" d="M164.1,293.6c-1.4,1.7-2.5,3.1-2.5,6.1c0,2.9,1.1,4.3,2.5,6.1c1.6,2,3.6,4.4,3.6,9c0,4.6-2,7-3.6,8.9
			c-1.4,1.7-2.5,3.1-2.5,6.1c0,2.9,1.1,4.3,2.5,6.1c1.6,2,3.6,4.4,3.6,9c0,4.6-2,7-3.6,8.9c-1.1,1.4-2,2.5-2.4,4.3h12
			c0.4-3.5,2.1-5.5,3.4-7.2c1.4-1.7,2.5-3.1,2.5-6.1c0-2.9-1.1-4.3-2.5-6.1c-1.6-2-3.6-4.4-3.6-9s2-7,3.6-8.9
			c1.4-1.7,2.5-3.1,2.5-6.1c0-2.9-1.1-4.3-2.5-6.1c-1.6-2-3.6-4.4-3.6-9s2-7,3.6-9c1.1-1.4,2-2.5,2.4-4.3h-12
			C167.2,289.9,165.5,291.9,164.1,293.6z"/>
		<path class="st1" d="M178.2,299.7c0,2.9,1.1,4.3,2.5,6.1c1.6,2,3.6,4.4,3.6,9c0,4.6-2,7-3.6,8.9c-1.4,1.7-2.5,3.1-2.5,6.1
			c0,2.9,1.1,4.3,2.5,6.1c1.6,2,3.6,4.4,3.6,9c0,4.6-2,7-3.6,8.9c-1.1,1.4-2,2.5-2.4,4.3h12.2c0.4-3.5,2.1-5.5,3.4-7.2
			c1.4-1.7,2.5-3.1,2.5-6.1c0-2.9-1.1-4.3-2.5-6.1c-1.6-2-3.6-4.4-3.6-9s2-7,3.6-8.9c1.4-1.7,2.5-3.1,2.5-6.1c0-2.9-1.1-4.3-2.5-6.1
			c-1.6-2-3.6-4.4-3.6-9s2-7,3.6-9c1.1-1.4,2-2.5,2.4-4.3h-12.2c-0.4,3.5-2.1,5.5-3.4,7.2C179.4,295.3,178.2,296.7,178.2,299.7z"/>
	</g>
	<g>
		<rect x="164.6" y="429.6" class="st2" width="12.1" height="71.6"/>
		<rect x="143.2" y="429.6" class="st2" width="16.9" height="71.6"/>
		<rect x="181.3" y="429.6" class="st2" width="12.3" height="71.6"/>
		<rect x="198.1" y="429.6" class="st2" width="16.7" height="71.6"/>
	</g>
	<g>
		<rect x="71.6" y="307.8" class="st2" width="71.6" height="12.1"/>
		<rect x="71.6" y="324.5" class="st2" width="71.6" height="12.3"/>
		<rect x="71.6" y="286.4" class="st2" width="71.6" height="16.9"/>
		<rect x="71.6" y="341.3" class="st2" width="71.6" height="16.7"/>
	</g>
	<g>
		<polygon class="st3" points="235.2,214.8 218.1,214.8 286.4,283.1 286.4,266 		"/>
		<polygon class="st3" points="265.9,286.4 283.2,286.4 214.8,218 214.8,235.3 		"/>
		<polygon class="st3" points="214.8,241.8 214.8,286.4 259.4,286.4 		"/>
		<polygon class="st3" points="286.4,259.6 286.4,214.8 241.6,214.8 		"/>
	</g>
	<g>
		<polygon class="st3" points="286.4,378.4 286.4,361 217.8,429.6 235.2,429.6 		"/>
		<polygon class="st3" points="259.4,358 214.8,358 214.8,402.6 		"/>
		<polygon class="st3" points="241.6,429.6 286.4,429.6 286.4,384.8 		"/>
		<polygon class="st3" points="214.8,409 214.8,426.1 282.9,358 265.9,358 		"/>
	</g>
	<g>
		<polygon class="st0" points="386,185.1 401,200.1 416,185.1 429.3,198.4 429.3,188 416,174.7 401,189.7 386,174.7 371,189.7 
			357.7,176.5 357.7,186.9 371,200.1 		"/>
		<polygon class="st0" points="416,158.1 401,173.1 386,158.1 371,173.1 357.7,159.8 357.7,170 371,183.3 386,168.2 401,183.3 
			416,168.2 429.3,181.5 429.3,171.3 		"/>
		<polygon class="st0" points="371,166.6 386,151.6 401,166.6 416,151.6 429.3,164.9 429.3,143.2 357.7,143.2 357.7,153.4 		"/>
		<polygon class="st0" points="416,191.6 401,206.6 386,191.6 371,206.6 357.7,193.3 357.7,214.8 429.3,214.8 429.3,204.8 		"/>
	</g>
	<g>
		<path class="st1" d="M493.7,269.2c-1.7-1.4-3.1-2.5-6.1-2.5c-2.9,0-4.3,1.1-6.1,2.5c-2,1.6-4.4,3.6-9,3.6c-4.6,0-7-2-8.9-3.6
			c-1.7-1.4-3.1-2.5-6.1-2.5c-2.9,0-4.3,1.1-6.1,2.5c-2,1.6-4.4,3.6-9,3.6s-7-2-8.9-3.6c-1.4-1.1-2.5-2-4.3-2.4v19.6h71.6v-13.7
			C497.4,272.2,495.4,270.6,493.7,269.2z"/>
		<path class="st1" d="M436.5,232.2c1.7,1.4,3.1,2.5,6.1,2.5s4.3-1.1,6.1-2.5c2-1.6,4.4-3.6,9-3.6c4.6,0,7,2,8.9,3.6
			c1.7,1.4,3.1,2.5,6.1,2.5c2.9,0,4.3-1.1,6.1-2.5c2-1.6,4.4-3.6,9-3.6s7,2,9,3.6c1.4,1.1,2.5,2,4.3,2.4v-19.8h-71.6v13.9
			C432.8,229.1,434.8,230.8,436.5,232.2z"/>
		<path class="st1" d="M493.7,235.7c-1.7-1.4-3.1-2.5-6.1-2.5c-2.9,0-4.3,1.1-6.1,2.5c-2,1.6-4.4,3.6-9,3.6c-4.6,0-7-2-8.9-3.6
			c-1.7-1.4-3.1-2.5-6.1-2.5c-2.9,0-4.3,1.1-6.1,2.5c-2,1.6-4.4,3.6-9,3.6s-7-2-8.9-3.6c-1.4-1.1-2.5-2-4.3-2.4v12
			c3.5,0.4,5.5,2.1,7.2,3.4c1.7,1.4,3.1,2.5,6.1,2.5s4.3-1.1,6.1-2.5c2-1.6,4.4-3.6,9-3.6c4.6,0,7,2,8.9,3.6
			c1.7,1.4,3.1,2.5,6.1,2.5c2.9,0,4.3-1.1,6.1-2.5c2-1.6,4.4-3.6,9-3.6s7,2,9,3.6c1.4,1.1,2.5,2,4.3,2.4v-12
			C497.4,238.7,495.4,237.1,493.7,235.7z"/>
		<path class="st1" d="M487.6,249.8c-2.9,0-4.3,1.1-6.1,2.5c-2,1.6-4.4,3.6-9,3.6c-4.6,0-7-2-8.9-3.6c-1.7-1.4-3.1-2.5-6.1-2.5
			c-2.9,0-4.3,1.1-6.1,2.5c-2,1.6-4.4,3.6-9,3.6s-7-2-8.9-3.6c-1.4-1.1-2.5-2-4.3-2.4v12.2c3.5,0.4,5.5,2.1,7.2,3.4
			c1.7,1.4,3.1,2.5,6.1,2.5s4.3-1.1,6.1-2.5c2-1.6,4.4-3.6,9-3.6c4.6,0,7,2,8.9,3.6c1.7,1.4,3.1,2.5,6.1,2.5c2.9,0,4.3-1.1,6.1-2.5
			c2-1.6,4.4-3.6,9-3.6s7,2,9,3.6c1.4,1.1,2.5,2,4.3,2.4v-12.2c-3.5-0.4-5.5-2.1-7.2-3.4C492,250.9,490.6,249.8,487.6,249.8z"/>
	</g>
	<g>
		<rect x="467.4" y="143.2" class="st2" width="12.1" height="71.6"/>
		<rect x="450.5" y="143.2" class="st2" width="12.3" height="71.6"/>
		<rect x="484" y="143.2" class="st2" width="16.9" height="71.6"/>
		<rect x="429.3" y="143.2" class="st2" width="16.7" height="71.6"/>
	</g>
	<g>
		<polygon class="st3" points="408.9,358 426.2,358 357.6,289.4 357.6,306.8 		"/>
		<polygon class="st3" points="429.2,331 429.2,286.4 384.6,286.4 		"/>
		<polygon class="st3" points="357.6,313.2 357.6,358 402.4,358 		"/>
		<polygon class="st3" points="378.2,286.4 361.1,286.4 429.2,354.5 429.2,337.4 		"/>
	</g>
	<path class="st4" d="M286.4,214.8v22.5h16.5v3.8h-16.5v7.4h16.5v3.8h-16.5v7.4h16.5v3.8h-16.5v22.5h71.3v-22.5h-16.5v-3.8h16.5
		v-7.4h-16.5v-3.8h16.5v-7.4h-16.5v-3.8h16.5v-22.5H286.4z M322.1,258.8l-8.4-8.4l8.4-8.4l8.4,8.4L322.1,258.8z"/>
</g>
</svg>
