<svg version="1.1"
	 xmlns="http://www.w3.org/2000/svg" xmlns:xlink="http://www.w3.org/1999/xlink" xmlns:a="http://ns.adobe.com/AdobeSVGViewerExtensions/3.0/"
	 x="0px" y="0px" width="500.9px" height="501.5px" viewBox="0 0 500.9 501.5" style="enable-background:new 0 0 500.9 501.5;"
	 xml:space="preserve">
<style type="text/css">
	.st0{fill:#4E4E56;}
</style>
<defs>
</defs>
<g>
	<g>
		<polygon class="st0" points="99.6,41.9 114.7,57 129.7,41.9 143,55.2 143,44.8 129.7,31.5 114.7,46.6 99.6,31.5 84.6,46.6 
			71.3,33.3 71.3,43.7 84.6,57 		"/>
		<polygon class="st0" points="129.7,14.9 114.7,29.9 99.6,14.9 84.6,29.9 71.3,16.6 71.3,26.8 84.6,40.1 99.6,25.1 114.7,40.1 
			129.7,25.1 143,38.3 143,28.2 		"/>
		<polygon class="st0" points="84.6,23.4 99.6,8.4 114.7,23.4 129.7,8.4 143,21.7 143,0 71.3,0 71.3,10.2 		"/>
		<polygon class="st0" points="129.7,48.4 114.7,63.4 99.6,48.4 84.6,63.4 71.3,50.2 71.3,71.6 143,71.6 143,61.7 		"/>
	</g>
	<g>
		<path class="st0" d="M207.4,126.1c-1.7-1.4-3.1-2.5-6.1-2.5c-2.9,0-4.3,1.1-6.1,2.5c-2,1.6-4.4,3.6-9,3.6c-4.6,0-7-2-9-3.6
			c-1.7-1.4-3.1-2.5-6.1-2.5c-2.9,0-4.3,1.1-6.1,2.5c-2,1.6-4.4,3.6-9,3.6s-7-2-9-3.6c-1.4-1.1-2.5-2-4.3-2.4v19.6h71.6v-13.7
			C211.1,129.1,209.1,127.5,207.4,126.1z"/>
		<path class="st0" d="M150.2,89c1.7,1.4,3.1,2.5,6.1,2.5c2.9,0,4.3-1.1,6.1-2.5c2-1.6,4.4-3.6,9-3.6s7,2,9,3.6
			c1.7,1.4,3.1,2.5,6.1,2.5c2.9,0,4.3-1.1,6.1-2.5c2-1.6,4.4-3.6,9-3.6c4.6,0,7,2,9,3.6c1.4,1.1,2.5,2,4.3,2.4V71.6H143v13.9
			C146.4,86,148.5,87.7,150.2,89z"/>
		<path class="st0" d="M207.4,92.6c-1.7-1.4-3.1-2.5-6.1-2.5c-2.9,0-4.3,1.1-6.1,2.5c-2,1.6-4.4,3.6-9,3.6c-4.6,0-7-2-9-3.6
			c-1.7-1.4-3.1-2.5-6.1-2.5c-2.9,0-4.3,1.1-6.1,2.5c-2,1.6-4.4,3.6-9,3.6s-7-2-9-3.6c-1.4-1.1-2.5-2-4.3-2.4v12
			c3.5,0.4,5.5,2.1,7.2,3.4c1.7,1.4,3.1,2.5,6.1,2.5c2.9,0,4.3-1.1,6.1-2.5c2-1.6,4.4-3.6,9-3.6s7,2,9,3.6c1.7,1.4,3.1,2.5,6.1,2.5
			c2.9,0,4.3-1.1,6.1-2.5c2-1.6,4.4-3.6,9-3.6c4.6,0,7,2,9,3.6c1.4,1.1,2.5,2,4.3,2.4V96C211.1,95.6,209.1,93.9,207.4,92.6z"/>
		<path class="st0" d="M201.3,106.7c-2.9,0-4.3,1.1-6.1,2.5c-2,1.6-4.4,3.6-9,3.6c-4.6,0-7-2-9-3.6c-1.7-1.4-3.1-2.5-6.1-2.5
			c-2.9,0-4.3,1.1-6.1,2.5c-2,1.6-4.4,3.6-9,3.6s-7-2-9-3.6c-1.4-1.1-2.5-2-4.3-2.4v12.2c3.5,0.4,5.5,2.1,7.2,3.4
			c1.7,1.4,3.1,2.5,6.1,2.5c2.9,0,4.3-1.1,6.1-2.5c2-1.6,4.4-3.6,9-3.6s7,2,9,3.6c1.7,1.4,3.1,2.5,6.1,2.5c2.9,0,4.3-1.1,6.1-2.5
			c2-1.6,4.4-3.6,9-3.6c4.6,0,7,2,9,3.6c1.4,1.1,2.5,2,4.3,2.4v-12.2c-3.5-0.4-5.5-2.1-7.2-3.4C205.7,107.8,204.3,106.7,201.3,106.7
			z"/>
	</g>
	<g>
		<rect x="181.1" class="st0" width="12.1" height="71.6"/>
		<rect x="164.2" class="st0" width="12.3" height="71.6"/>
		<rect x="197.7" class="st0" width="16.9" height="71.6"/>
		<rect x="143" class="st0" width="16.7" height="71.6"/>
	</g>
	<g>
		<polygon class="st0" points="286.3,163.7 286.3,146.6 217.9,214.9 235,214.9 		"/>
		<polygon class="st0" points="214.6,194.4 214.6,211.7 283.1,143.3 265.7,143.3 		"/>
		<polygon class="st0" points="259.2,143.3 214.6,143.3 214.6,187.9 		"/>
		<polygon class="st0" points="241.4,214.9 286.3,214.9 286.3,170.1 		"/>
	</g>
	<g>
		<polygon class="st0" points="122.6,214.9 140,214.9 71.3,146.3 71.3,163.7 		"/>
		<polygon class="st0" points="143,187.9 143,143.3 98.4,143.3 		"/>
		<polygon class="st0" points="71.3,170.1 71.3,214.9 116.1,214.9 		"/>
		<polygon class="st0" points="91.9,143.3 74.8,143.3 143,211.5 143,194.4 		"/>
	</g>
	<g>
		<polygon class="st0" points="113.3,401.5 128.3,386.5 113.3,371.5 126.5,358.2 116.1,358.2 102.9,371.5 117.9,386.5 102.9,401.5 
			117.9,416.6 104.6,429.8 115,429.8 128.3,416.6 		"/>
		<polygon class="st0" points="86.2,371.5 101.2,386.5 86.2,401.5 101.2,416.6 88,429.8 98.2,429.8 111.4,416.6 96.4,401.5 
			111.4,386.5 96.4,371.5 109.7,358.2 99.5,358.2 		"/>
		<polygon class="st0" points="94.8,416.6 79.7,401.5 94.8,386.5 79.7,371.5 93,358.2 71.3,358.2 71.3,429.8 81.5,429.8 		"/>
		<polygon class="st0" points="119.7,371.5 134.8,386.5 119.7,401.5 134.8,416.6 121.5,429.8 143,429.8 143,358.2 133,358.2 		"/>
	</g>
	<g>
		<path class="st0" d="M197.4,293.8c-1.4,1.7-2.5,3.1-2.5,6.1c0,2.9,1.1,4.3,2.5,6.1c1.6,2,3.6,4.4,3.6,9c0,4.6-2,7-3.6,9
			c-1.4,1.7-2.5,3.1-2.5,6.1c0,2.9,1.1,4.3,2.5,6.1c1.6,2,3.6,4.4,3.6,9c0,4.6-2,7-3.6,9c-1.1,1.4-2,2.5-2.4,4.3h19.6v-71.6h-13.7
			C200.4,290,198.8,292.1,197.4,293.8z"/>
		<path class="st0" d="M160.4,351c1.4-1.7,2.5-3.1,2.5-6.1s-1.1-4.3-2.5-6.1c-1.6-2-3.6-4.4-3.6-9c0-4.6,2-7,3.6-9
			c1.4-1.7,2.5-3.1,2.5-6.1c0-2.9-1.1-4.3-2.5-6.1c-1.6-2-3.6-4.4-3.6-9s2-7,3.6-9c1.1-1.4,2-2.5,2.4-4.3H143v71.6h13.9
			C157.3,354.7,159,352.7,160.4,351z"/>
		<path class="st0" d="M163.9,293.8c-1.4,1.7-2.5,3.1-2.5,6.1c0,2.9,1.1,4.3,2.5,6.1c1.6,2,3.6,4.4,3.6,9c0,4.6-2,7-3.6,9
			c-1.4,1.7-2.5,3.1-2.5,6.1c0,2.9,1.1,4.3,2.5,6.1c1.6,2,3.6,4.4,3.6,9c0,4.6-2,7-3.6,9c-1.1,1.4-2,2.5-2.4,4.3h12
			c0.4-3.5,2.1-5.5,3.4-7.2c1.4-1.7,2.5-3.1,2.5-6.1s-1.1-4.3-2.5-6.1c-1.6-2-3.6-4.4-3.6-9c0-4.6,2-7,3.6-9
			c1.4-1.7,2.5-3.1,2.5-6.1c0-2.9-1.1-4.3-2.5-6.1c-1.6-2-3.6-4.4-3.6-9s2-7,3.6-9c1.1-1.4,2-2.5,2.4-4.3h-12
			C166.9,290,165.3,292.1,163.9,293.8z"/>
		<path class="st0" d="M178,299.8c0,2.9,1.1,4.3,2.5,6.1c1.6,2,3.6,4.4,3.6,9c0,4.6-2,7-3.6,9c-1.4,1.7-2.5,3.1-2.5,6.1
			c0,2.9,1.1,4.3,2.5,6.1c1.6,2,3.6,4.4,3.6,9c0,4.6-2,7-3.6,9c-1.1,1.4-2,2.5-2.4,4.3h12.2c0.4-3.5,2.1-5.5,3.4-7.2
			c1.4-1.7,2.5-3.1,2.5-6.1s-1.1-4.3-2.5-6.1c-1.6-2-3.6-4.4-3.6-9c0-4.6,2-7,3.6-9c1.4-1.7,2.5-3.1,2.5-6.1c0-2.9-1.1-4.3-2.5-6.1
			c-1.6-2-3.6-4.4-3.6-9s2-7,3.6-9c1.1-1.4,2-2.5,2.4-4.3H184c-0.4,3.5-2.1,5.5-3.4,7.2C179.1,295.5,178,296.9,178,299.8z"/>
	</g>
	<g>
		<rect x="164.4" y="429.8" class="st0" width="12.1" height="71.6"/>
		<rect x="143" y="429.8" class="st0" width="16.9" height="71.6"/>
		<rect x="181.1" y="429.8" class="st0" width="12.3" height="71.6"/>
		<rect x="197.9" y="429.8" class="st0" width="16.7" height="71.6"/>
	</g>
	<g>
		<rect x="71.3" y="308" class="st0" width="71.6" height="12.1"/>
		<rect x="71.3" y="324.7" class="st0" width="71.6" height="12.3"/>
		<rect x="71.3" y="286.6" class="st0" width="71.6" height="16.9"/>
		<rect x="71.3" y="341.5" class="st0" width="71.6" height="16.7"/>
	</g>
	<g>
		<polygon class="st0" points="235,214.9 217.9,214.9 286.3,283.3 286.3,266.2 		"/>
		<polygon class="st0" points="265.7,286.6 283.1,286.6 214.6,218.1 214.6,235.5 		"/>
		<polygon class="st0" points="214.6,241.9 214.6,286.6 259.2,286.6 		"/>
		<polygon class="st0" points="286.3,259.7 286.3,214.9 241.4,214.9 		"/>
	</g>
	<g>
		<polygon class="st0" points="286.3,378.6 286.3,361.2 217.6,429.8 235,429.8 		"/>
		<polygon class="st0" points="259.2,358.2 214.6,358.2 214.6,402.8 		"/>
		<polygon class="st0" points="241.4,429.8 286.3,429.8 286.3,385 		"/>
		<polygon class="st0" points="214.6,409.3 214.6,426.4 282.8,358.2 265.7,358.2 		"/>
	</g>
	<g>
		<polygon class="st0" points="385.9,185.2 400.9,200.2 415.9,185.2 429.2,198.5 429.2,188.1 415.9,174.8 400.9,189.8 385.9,174.8 
			370.8,189.8 357.6,176.6 357.6,187 370.8,200.2 		"/>
		<polygon class="st0" points="415.9,158.1 400.9,173.2 385.9,158.1 370.8,173.2 357.6,159.9 357.6,170.1 370.8,183.4 385.9,168.3 
			400.9,183.4 415.9,168.3 429.2,181.6 429.2,171.4 		"/>
		<polygon class="st0" points="370.8,166.7 385.9,151.7 400.9,166.7 415.9,151.7 429.2,165 429.2,143.3 357.6,143.3 357.6,153.4 		
			"/>
		<polygon class="st0" points="415.9,191.7 400.9,206.7 385.9,191.7 370.8,206.7 357.6,193.4 357.6,214.9 429.2,214.9 429.2,204.9 
					"/>
	</g>
	<g>
		<path class="st0" d="M493.7,269.4c-1.7-1.4-3.1-2.5-6.1-2.5c-2.9,0-4.3,1.1-6.1,2.5c-2,1.6-4.4,3.6-9,3.6c-4.6,0-7-2-9-3.6
			c-1.7-1.4-3.1-2.5-6.1-2.5c-2.9,0-4.3,1.1-6.1,2.5c-2,1.6-4.4,3.6-9,3.6c-4.6,0-7-2-9-3.6c-1.4-1.1-2.5-2-4.3-2.4v19.6h71.6v-13.7
			C497.4,272.4,495.4,270.7,493.7,269.4z"/>
		<path class="st0" d="M436.4,232.3c1.7,1.4,3.1,2.5,6.1,2.5c2.9,0,4.3-1.1,6.1-2.5c2-1.6,4.4-3.6,9-3.6s7,2,9,3.6
			c1.7,1.4,3.1,2.5,6.1,2.5c2.9,0,4.3-1.1,6.1-2.5c2-1.6,4.4-3.6,9-3.6s7,2,9,3.6c1.4,1.1,2.5,2,4.3,2.4v-19.8h-71.6v13.9
			C432.7,229.3,434.7,230.9,436.4,232.3z"/>
		<path class="st0" d="M493.7,235.8c-1.7-1.4-3.1-2.5-6.1-2.5c-2.9,0-4.3,1.1-6.1,2.5c-2,1.6-4.4,3.6-9,3.6c-4.6,0-7-2-9-3.6
			c-1.7-1.4-3.1-2.5-6.1-2.5c-2.9,0-4.3,1.1-6.1,2.5c-2,1.6-4.4,3.6-9,3.6c-4.6,0-7-2-9-3.6c-1.4-1.1-2.5-2-4.3-2.4v12
			c3.5,0.4,5.5,2.1,7.2,3.4c1.7,1.4,3.1,2.5,6.1,2.5c2.9,0,4.3-1.1,6.1-2.5c2-1.6,4.4-3.6,9-3.6s7,2,9,3.6c1.7,1.4,3.1,2.5,6.1,2.5
			c2.9,0,4.3-1.1,6.1-2.5c2-1.6,4.4-3.6,9-3.6s7,2,9,3.6c1.4,1.1,2.5,2,4.3,2.4v-12C497.4,238.9,495.4,237.2,493.7,235.8z"/>
		<path class="st0" d="M487.6,250c-2.9,0-4.3,1.1-6.1,2.5c-2,1.6-4.4,3.6-9,3.6c-4.6,0-7-2-9-3.6c-1.7-1.4-3.1-2.5-6.1-2.5
			c-2.9,0-4.3,1.1-6.1,2.5c-2,1.6-4.4,3.6-9,3.6c-4.6,0-7-2-9-3.6c-1.4-1.1-2.5-2-4.3-2.4v12.2c3.5,0.4,5.5,2.1,7.2,3.4
			c1.7,1.4,3.1,2.5,6.1,2.5c2.9,0,4.3-1.1,6.1-2.5c2-1.6,4.4-3.6,9-3.6s7,2,9,3.6c1.7,1.4,3.1,2.5,6.1,2.5c2.9,0,4.3-1.1,6.1-2.5
			c2-1.6,4.4-3.6,9-3.6s7,2,9,3.6c1.4,1.1,2.5,2,4.3,2.4V256c-3.5-0.4-5.5-2.1-7.2-3.4C491.9,251.1,490.5,250,487.6,250z"/>
	</g>
	<g>
		<rect x="286.3" y="236.4" class="st0" width="71.6" height="12.1"/>
		<rect x="286.3" y="214.9" class="st0" width="71.6" height="16.9"/>
		<rect x="286.3" y="253" class="st0" width="71.6" height="12.3"/>
		<rect x="286.3" y="269.9" class="st0" width="71.6" height="16.7"/>
	</g>
	<g>
		<rect x="467.3" y="143.3" class="st0" width="12.1" height="71.6"/>
		<rect x="450.5" y="143.3" class="st0" width="12.3" height="71.6"/>
		<rect x="484" y="143.3" class="st0" width="16.9" height="71.6"/>
		<rect x="429.2" y="143.3" class="st0" width="16.7" height="71.6"/>
	</g>
	<g>
		<polygon class="st0" points="408.8,358.2 426.2,358.2 357.5,289.5 357.5,306.9 		"/>
		<polygon class="st0" points="429.1,331.2 429.1,286.6 384.5,286.6 		"/>
		<polygon class="st0" points="357.5,313.4 357.5,358.2 402.3,358.2 		"/>
		<polygon class="st0" points="378.1,286.6 361,286.6 429.1,354.7 429.1,337.6 		"/>
	</g>
	<path class="st0" d="M0,71.8v22.5h16.5v3.8H0v7.4h16.5v3.8H0v7.4h16.5v3.8H0v22.5h71.3v-22.5H54.8v-3.8h16.5v-7.4H54.8v-3.8h16.5
		v-7.4H54.8v-3.8h16.5V71.8H0z M35.7,115.8l-8.4-8.4l8.4-8.4l8.4,8.4L35.7,115.8z"/>
</g>
</svg>
