<svg version="1.1"
	 xmlns="http://www.w3.org/2000/svg" xmlns:xlink="http://www.w3.org/1999/xlink" xmlns:a="http://ns.adobe.com/AdobeSVGViewerExtensions/3.0/"
	 x="0px" y="0px" width="1162.1px" height="336.6px" viewBox="0 0 1162.1 336.6"
	 style="overflow:scroll;enable-background:new 0 0 1162.1 336.6;" xml:space="preserve">
<style type="text/css">
	.st0{fill:#FFC600;}
</style>
<defs>
</defs>
<g>
	<g>
		<g>
			<path class="st0" d="M419.6,231c-1.6,0-3.2-0.4-4.7-1.1L351,196.3l-63.9,33.6c-3.4,1.8-7.5,1.5-10.5-0.8c-3.1-2.2-4.6-6-4-9.8
				l12.2-71.2l-51.7-50.4c-2.7-2.7-3.7-6.6-2.5-10.3c1.2-3.6,4.3-6.3,8.1-6.8l71.5-10.4l32-64.8c1.7-3.4,5.2-5.6,9-5.6
				s7.3,2.2,9,5.6l32,64.8l71.5,10.4c3.8,0.5,6.9,3.2,8.1,6.8c1.2,3.6,0.2,7.6-2.5,10.3l-51.7,50.4l12.2,71.2c0.6,3.8-0.9,7.5-4,9.8
				C423.7,230.4,421.7,231,419.6,231z M351,175c1.6,0,3.2,0.4,4.7,1.1l50.6,26.6l-9.7-56.4c-0.6-3.2,0.5-6.6,2.9-8.9l41-39.9
				l-56.6-8.2c-3.3-0.5-6.1-2.5-7.5-5.5L351,32.6l-25.3,51.3c-1.5,3-4.3,5-7.5,5.5l-56.6,8.2l41,39.9c2.4,2.3,3.4,5.6,2.9,8.9
				l-9.7,56.4l50.6-26.6C347.8,175.4,349.4,175,351,175z"/>
		</g>
		<g>
			<path class="st0" d="M871.5,231c-1.6,0-3.2-0.4-4.7-1.1L803,196.3L739,229.9c-3.4,1.8-7.5,1.5-10.5-0.8c-3.1-2.2-4.6-6-4-9.8
				l12.2-71.2L685,97.8c-2.7-2.7-3.7-6.6-2.5-10.3c1.2-3.6,4.3-6.3,8.1-6.8L762,70.3l32-64.8c1.7-3.4,5.2-5.6,9-5.6s7.3,2.2,9,5.6
				l32,64.8l71.5,10.4c3.8,0.5,6.9,3.2,8.1,6.8c1.2,3.6,0.2,7.6-2.5,10.3l-51.7,50.4l12.2,71.2c0.6,3.8-0.9,7.5-4,9.8
				C875.7,230.4,873.6,231,871.5,231z M803,175c1.6,0,3.2,0.4,4.7,1.1l50.6,26.6l-9.7-56.4c-0.6-3.2,0.5-6.6,2.9-8.9l41-39.9
				l-56.6-8.2c-3.3-0.5-6.1-2.5-7.5-5.5L803,32.6l-25.3,51.3c-1.5,3-4.3,5-7.5,5.5l-56.6,8.2l41,39.9c2.4,2.3,3.4,5.6,2.9,8.9
				l-9.7,56.4l50.6-26.6C799.8,175.4,801.4,175,803,175z"/>
		</g>
	</g>
	<g>
		<g>
			<path class="st0" d="M52.4,336.6c-2.1,0-4.1-0.6-5.9-1.9c-3.1-2.2-4.6-6-4-9.8l12.2-71.2L3,203.3c-2.7-2.7-3.7-6.6-2.5-10.3
				c1.2-3.6,4.3-6.3,8.1-6.8L80,175.9l32-64.8c1.7-3.4,5.2-5.6,9-5.6s7.3,2.2,9,5.6l32,64.8l71.5,10.4c3.8,0.5,6.9,3.2,8.1,6.8
				c1.2,3.6,0.2,7.6-2.5,10.3l-51.7,50.4l12.2,71.2c0.6,3.8-0.9,7.5-4,9.8c-3.1,2.2-7.2,2.5-10.5,0.8L121,301.8L57,335.4
				C55.6,336.2,54,336.6,52.4,336.6z M31.5,203.1l41,39.9c2.4,2.3,3.4,5.6,2.9,8.9l-9.7,56.4l50.6-26.6c2.9-1.5,6.4-1.5,9.3,0
				l50.6,26.6l-9.7-56.4c-0.6-3.2,0.5-6.6,2.9-8.9l41-39.9l-56.6-8.2c-3.3-0.5-6.1-2.5-7.5-5.5L121,138.1l-25.3,51.3
				c-1.5,3-4.3,5-7.5,5.5L31.5,203.1z"/>
		</g>
		<g>
			<path class="st0" d="M649.6,336.6c-1.6,0-3.2-0.4-4.7-1.1l-63.9-33.6l-63.9,33.6c-3.4,1.8-7.5,1.5-10.5-0.8s-4.6-6-4-9.8
				l12.2-71.2l-51.7-50.4c-2.7-2.7-3.7-6.6-2.5-10.3c1.2-3.6,4.3-6.3,8.1-6.8l71.5-10.4l32-64.8c1.7-3.4,5.2-5.6,9-5.6
				s7.3,2.2,9,5.6l32,64.8l71.5,10.4c3.8,0.5,6.9,3.2,8.1,6.8c1.2,3.6,0.2,7.6-2.5,10.3l-51.7,50.4l12.2,71.2c0.6,3.8-0.9,7.5-4,9.8
				C653.8,335.9,651.7,336.6,649.6,336.6z M491.6,203.1l41,39.9c2.4,2.3,3.4,5.6,2.9,8.9l-9.7,56.4l50.6-26.6c2.9-1.5,6.4-1.5,9.3,0
				l50.6,26.6l-9.7-56.4c-0.6-3.2,0.5-6.6,2.9-8.9l41-39.9l-56.6-8.2c-3.3-0.5-6.1-2.5-7.5-5.5l-25.3-51.3l-25.3,51.3
				c-1.5,3-4.3,5-7.5,5.5L491.6,203.1z"/>
		</g>
	</g>
	<g>
		<path class="st0" d="M972.6,336.6c-2.1,0-4.1-0.6-5.9-1.9c-3.1-2.2-4.6-6-4-9.8l12.2-71.2l-51.7-50.4c-2.7-2.7-3.7-6.6-2.5-10.3
			c1.2-3.6,4.3-6.3,8.1-6.8l71.5-10.4l32-64.8c1.7-3.4,5.2-5.6,9-5.6s7.3,2.2,9,5.6l32,64.8l71.5,10.4c3.8,0.5,6.9,3.2,8.1,6.8
			c1.2,3.6,0.2,7.6-2.5,10.3l-51.7,50.4l12.2,71.2c0.6,3.8-0.9,7.5-4,9.8c-3.1,2.2-7.2,2.5-10.5,0.8l-63.9-33.6l-63.9,33.6
			C975.8,336.2,974.2,336.6,972.6,336.6z M951.7,203.1l41,39.9c2.4,2.3,3.4,5.6,2.9,8.9l-9.7,56.4l50.6-26.6c2.9-1.5,6.4-1.5,9.3,0
			l50.6,26.6l-9.7-56.4c-0.6-3.2,0.5-6.6,2.9-8.9l41-39.9l-56.6-8.2c-3.3-0.5-6.1-2.5-7.5-5.5l-25.3-51.3l-25.3,51.3
			c-1.5,3-4.3,5-7.5,5.5L951.7,203.1z"/>
	</g>
</g>
</svg>
