<?xml version="1.0" encoding="UTF-8" standalone="no"?>
<svg
   xmlns:dc="http://purl.org/dc/elements/1.1/"
   xmlns:cc="http://creativecommons.org/ns#"
   xmlns:rdf="http://www.w3.org/1999/02/22-rdf-syntax-ns#"
   xmlns:svg="http://www.w3.org/2000/svg"
   xmlns="http://www.w3.org/2000/svg"
   xmlns:sodipodi="http://sodipodi.sourceforge.net/DTD/sodipodi-0.dtd"
   xmlns:inkscape="http://www.inkscape.org/namespaces/inkscape"
   version="1.1"
   x="0px"
   y="0px"
   width="512px"
   height="551.9px"
   viewBox="0 0 512 551.9"
   style="overflow:scroll;enable-background:new 0 0 512 551.9;"
   xml:space="preserve"
   id="svg2"
   inkscape:version="0.91 r13725"
   sodipodi:docname="6.svg"
   inkscape:export-filename="/home/slicedev007/Escritorio/logo_03.png"
   inkscape:export-xdpi="120"
   inkscape:export-ydpi="120"><metadata
     id="metadata23"><rdf:RDF><cc:Work
         rdf:about=""><dc:format>image/svg+xml</dc:format><dc:type
           rdf:resource="http://purl.org/dc/dcmitype/StillImage" /><dc:title></dc:title></cc:Work></rdf:RDF></metadata><sodipodi:namedview
     pagecolor="#ffffff"
     bordercolor="#666666"
     borderopacity="1"
     objecttolerance="10"
     gridtolerance="10"
     guidetolerance="10"
     inkscape:pageopacity="0"
     inkscape:pageshadow="2"
     inkscape:window-width="1434"
     inkscape:window-height="846"
     id="namedview21"
     showgrid="false"
     inkscape:showpageshadow="false"
     inkscape:zoom="1.7104547"
     inkscape:cx="383.52964"
     inkscape:cy="384.18475"
     inkscape:window-x="0"
     inkscape:window-y="0"
     inkscape:window-maximized="0"
     inkscape:current-layer="svg2"
     showguides="true"
     inkscape:guide-bbox="true" /><style
     type="text/css"
     id="style4">
	.st0{fill:#4E4E56;}
	.st1{fill:#43B7E8;}
</style><defs
     id="defs6" /><g
     id="g4228"
     transform="translate(-7.5705066,7.7118967)"><path
       style="fill:#ffc600"
       inkscape:connector-curvature="0"
       class="st1"
       d="m 425,0 c -48,0 -87,38.9 -87,87 0,48.1 38.9,87 87,87 48,0 87,-38.9 87,-87 C 512,38.9 473.1,0 425,0 Z m 0,154 c -37,0 -67,-30 -67,-67 0,-37 30,-67 67,-67 37,0 67,30 67,67 0,37 -30,67 -67,67 z"
       id="path4230" /><g
       id="g4232"><path
         style="fill:#4e4e56"
         inkscape:connector-curvature="0"
         class="st0"
         d="m 423.9,63.6 c -6.9,0 -10.4,5.9 -10.4,17.7 1.5,-1.9 3.6,-3.4 6.2,-4.3 2.6,-0.9 5.3,-1.4 7.9,-1.4 6.3,0 11.3,1.9 15.2,5.8 3.9,3.9 5.8,9.3 5.8,16.4 0,7 -2.1,12.6 -6.2,16.7 -4.1,4.1 -9.8,6.2 -16.8,6.2 -9.2,0 -15.8,-2.8 -20,-8.4 -4.2,-5.6 -6.3,-14.4 -6.3,-26.4 0,-23.6 8.3,-35.5 25,-35.5 6.9,0 12.2,1.9 15.9,5.6 3.7,3.7 5.9,8.4 6.6,14 l -15,0 c -0.9,-4.3 -3.5,-6.4 -7.9,-6.4 z m 9,34.8 c 0,-2.7 -0.8,-5 -2.3,-6.8 -1.5,-1.8 -3.8,-2.8 -6.7,-2.8 -2.9,0 -5.2,0.8 -6.8,2.4 -1.6,1.6 -2.4,3.9 -2.4,6.8 0,2.9 0.9,5.2 2.8,7 1.8,1.7 4.1,2.6 6.9,2.6 2.8,0 4.8,-0.9 6.3,-2.6 1.5,-1.7 2.2,-3.9 2.2,-6.6 z"
         id="path4234" /></g></g><rect
     style="fill:#ffffff"
     id="rect3348"
     width="513.31378"
     height="552.73694"
     x="-1515.3865"
     y="-478.23541" /><path
     inkscape:connector-curvature="0"
     style="fill:#4e4e56;fill-opacity:1"
     d="m 458.50612,475.93745 c -3.69242,-2.28942 -4.31674,-4.85448 -4.31674,-17.73561 l 0,-11.7 -200.25,0.01 -200.250008,0.0101 0,10.51488 c 0,11.91493 -0.78874,14.92252 -4.40367,16.79187 -1.89517,0.98007 -5.57939,1.17485 -22.22133,1.17485 -22.3016398,0 -23.6167898,-0.25217 -25.5590798,-4.90073 -0.91082,-2.1799 -1.06592,-27.85702 -1.06592,-176.47281 0,-114.39093 0.26031,-175.30452 0.76049,-177.9616 1.7341,-9.21188 7.82484,-17.27023 16.1308698,-21.34193 4.09282,-2.00635 5.17007,-2.19793 12.35864,-2.19793 6.99074,0 8.36078,0.22763 12.20119,2.02727 7.84257,3.67507 14.29965,11.71348 16.26972,20.25417 0.43126,1.86958 0.75011,17.75687 0.76076,37.90606 0.0101,19.07812 0.12392,34.6875 0.25297,34.6875 0.12905,0 1.96077,-0.83271 4.07048,-1.85048 7.81593,-3.77052 7.87851,-3.77452 59.069888,-3.77452 44.46486,0 48.33141,0.10156 52.5,1.37903 18.65089,5.71558 30.6681,22.64486 29.36708,41.37097 -0.41372,5.95474 -2.47173,13.33103 -4.64468,16.64738 l -1.13199,1.72762 76.0173,0 76.01729,0 0,-3.21062 c 0,-1.87377 0.58431,-4.10238 1.4033,-5.35232 2.69496,-4.11303 3.38968,-4.18731 39.13511,-4.18426 31.61234,0.003 32.92914,0.0592 35.31922,1.51642 2.81175,1.71428 4.92246,5.98238 4.47298,9.04488 l -0.30062,2.04821 27.4225,0.32119 c 26.18766,0.30673 27.63492,0.39782 32.13966,2.02271 7.88251,2.8433 15.18257,9.28959 19.03727,16.8108 3.61373,7.05102 3.59367,6.43833 3.60756,110.19458 0.0142,105.72421 0.22155,100.49565 -4.12224,103.91248 -2.01953,1.58856 -2.59473,1.62547 -25.02839,1.60597 -20.2903,-0.0176 -23.20078,-0.16841 -25.01961,-1.29613 z"
     id="path3491" /><path
     inkscape:connector-curvature="0"
     style="fill:#ffffff"
     d="m 37.189372,452.50354 0,-6 -10.125,0 -10.125,0 0,6 0,6 10.125,0 10.125,0 0,-6 z"
     id="path3489" /><path
     inkscape:connector-curvature="0"
     style="fill:#ffffff"
     d="m 493.18938,452.48184 0,-6.02177 -9.9375,0.20927 -9.9375,0.20927 -0.21905,5.8125 -0.21905,5.8125 10.15655,0 10.15655,0 0,-6.02177 z"
     id="path3487" /><path
     inkscape:connector-curvature="0"
     style="fill:#ffffff;fill-opacity:1;stroke:#000000;stroke-opacity:0"
     d="m 40.188212,273.44104 c -10e-4,-145.4155 -0.0768,-154.46299 -1.3125,-156.92256 -1.59587,-3.17637 -5.64085,-6.01494 -8.57134,-6.01494 -3.46921,0 -7.21343,1.96501 -8.84577,4.64236 -1.50525,2.4689 -1.51364,3.34016 -1.51642,157.54514 l -0.003,155.0625 10.125,0 10.125,0 -0.001,-154.3125 z"
     id="path3485" /><path
     inkscape:connector-curvature="0"
     style="fill:#ffffff"
     d="m 493.56438,406.37854 0,-21 -138.375,-0.375 c -137.22517,-0.37189 -138.41007,-0.3878 -142.59491,-1.91484 -9.84226,-3.59142 -17.58889,-10.14989 -22.16854,-18.76837 -4.71846,-8.87969 -4.73655,-9.10126 -4.73655,-57.98755 l 0,-44.32924 -63.375,0 -63.375008,0 0,82.87627 0,82.87629 217.312508,-0.18879 217.3125,-0.18877 0,-21 z"
     id="path3483" /><path
     inkscape:connector-curvature="0"
     style="fill:#ffffff"
     d="m 493.18938,319.15037 0,-47.10316 -2.16494,-3.41375 c -1.43909,-2.26921 -3.27867,-3.9529 -5.4868,-5.02184 l -3.32185,-1.60808 -138.8882,0 -138.88821,0 0,43.36639 c 0,48.19984 -0.0752,47.39712 4.99629,53.32203 2.71765,3.17497 7.09247,5.87087 11.12871,6.85785 1.2375,0.3026 63.08437,0.58473 137.4375,0.62696 l 135.1875,0.0768 0,-47.10317 z"
     id="path3481" /><path
     inkscape:connector-curvature="0"
     style="fill:#4e4e56;fill-opacity:1"
     d="m 242.01168,343.55498 c -6.9823,-3.58834 -6.23523,-14.64621 1.15425,-17.08496 3.49927,-1.15486 8.91496,-0.52352 11.42163,1.33149 2.47218,1.8295 4.27194,6.676 3.54892,9.55675 -0.29453,1.17353 -1.66312,3.2613 -3.04131,4.63948 -2.27389,2.27389 -2.91185,2.50478 -6.89329,2.49474 -2.41313,-0.006 -5.19872,-0.42795 -6.1902,-0.9375 z"
     id="path3479" /><path
     inkscape:connector-curvature="0"
     style="fill:#4e4e56;fill-opacity:1"
     d="m 308.92474,343.04087 c -2.9676,-1.80948 -4.06922,-3.80081 -4.11953,-7.44663 -0.0831,-6.01767 4.12202,-9.8407 10.8241,-9.8407 4.4745,0 8.10041,2.4637 9.48888,6.44746 1.35702,3.89347 0.65521,6.61851 -2.52302,9.79674 -2.27094,2.27094 -2.91701,2.50554 -6.89329,2.50299 -3.02046,-0.002 -5.13206,-0.45678 -6.77714,-1.45986 z"
     id="path3477" /><path
     inkscape:connector-curvature="0"
     style="fill:#4e4e56;fill-opacity:1"
     d="m 376.42474,343.04087 c -3.0304,-1.84776 -3.98536,-3.65097 -3.98536,-7.52527 0,-6.15828 3.92237,-9.76501 10.61334,-9.75926 9.33814,0.008 13.74987,10.18664 7.06895,16.30925 -2.35926,2.1621 -3.14946,2.43763 -6.98378,2.43514 -2.95708,-0.002 -5.07875,-0.4633 -6.71315,-1.45986 z"
     id="path3475" /><path
     inkscape:connector-curvature="0"
     style="fill:#4e4e56;fill-opacity:1"
     d="m 444.2613,343.3295 c -2.66223,-1.44451 -4.32192,-4.72776 -4.32192,-8.54973 0,-2.40945 0.52421,-3.62028 2.50143,-5.77779 2.16948,-2.36733 3.04894,-2.77494 6.62732,-3.07169 4.9695,-0.41211 8.25298,1.02329 10.40161,4.54716 2.63559,4.32252 1.25391,10.251 -2.9707,12.74654 -2.69167,1.59001 -9.39529,1.64781 -12.23774,0.10551 z"
     id="path3473" /><path
     inkscape:connector-curvature="0"
     style="fill:#4e4e56;fill-opacity:1"
     d="m 277.65385,301.72772 c -2.93359,-0.87835 -5.5008,-3.42921 -6.50087,-6.45947 -1.74849,-5.29796 2.34386,-10.98154 8.58044,-11.91677 6.38589,-0.95763 12.45596,3.62421 12.45596,9.40206 0,6.61258 -7.32293,11.13373 -14.53553,8.97418 z"
     id="path3471" /><path
     inkscape:connector-curvature="0"
     style="fill:#4e4e56;fill-opacity:1"
     d="m 344.93906,301.71872 c -6.0107,-1.83725 -8.39354,-10.05247 -4.31993,-14.89368 3.44829,-4.09805 10.79214,-4.796 15.4636,-1.46963 4.52356,3.22106 4.46805,11.61431 -0.0983,14.86584 -2.55679,1.8206 -7.70483,2.51854 -11.04536,1.49747 z"
     id="path3469" /><path
     inkscape:connector-curvature="0"
     style="fill:#4e4e56;fill-opacity:1"
     d="m 412.43906,301.71872 c -3.85894,-1.17956 -6.24968,-4.65987 -6.24968,-9.09796 0,-3.26453 0.33141,-4.09887 2.48271,-6.25016 3.02281,-3.02282 7.63653,-3.96714 12.11487,-2.47964 7.21923,2.39789 8.62949,12.50634 2.32143,16.63954 -2.39092,1.56659 -7.55124,2.14127 -10.66933,1.1882 z"
     id="path3467" /><path
     inkscape:connector-curvature="0"
     style="fill:#ffffff"
     d="m 173.50871,240.57812 c 13.97438,-6.96372 15.94066,-26.36028 3.61645,-35.67494 -2.01442,-1.5225 -5.04592,-3.15013 -6.73668,-3.61698 -2.17767,-0.60128 -16.74327,-0.78448 -49.9491,-0.62822 -43.167108,0.20314 -47.067018,0.32551 -49.302378,1.54711 -15.96047,8.72215 -15.98423,30.41621 -0.042,38.36055 l 3.88891,1.9379 47.330478,0 47.33048,0 3.86385,-1.92544 z"
     id="path3465" /><style
     id="style4283"
     type="text/css">
	.st0{fill:#4E4E56;}
	.st1{fill:#FFC600;}
</style><style
     id="style4239"
     type="text/css">
	.st0{fill:#4E4E56;}
	.st1{fill:#E53124;}
</style><style
     id="style4221"
     type="text/css">
	.st0{fill:#4E4E56;}
	.st1{fill:#EB6B0A;}
</style><style
     id="style4332"
     type="text/css">
	.st0{fill:#4E4E56;}
	.st1{fill:#9DC107;}
</style><style
     id="style4221-3"
     type="text/css">
	.st0{fill:#4E4E56;}
	.st1{fill:#FFC600;}
</style><g
     id="g4225"
     transform="translate(-1969.7221,-584.66495)"><path
       style="fill:#4e4e56"
       inkscape:connector-curvature="0"
       id="XMLID_1_"
       class="st0"
       d="m 141.9,359.7 c 1.8,-2.8 2.1,-6.2 0.7,-9.2 L 118.5,297 c -1.6,-3.5 -5,-5.7 -8.8,-5.7 l -37.5,0 c -3.8,0 -7.3,2.2 -8.9,5.7 l -24.1,53.5 c -1.3,3 -1.1,6.5 0.7,9.2 1.8,2.8 4.9,4.4 8.1,4.4 l 13.4,0 c -1.7,3.9 -2.6,8.1 -2.6,12.6 l 0,5.3 c 0,4.5 0.9,8.7 2.6,12.6 l -51.7,0 c -5.4,0 -9.7,4.3 -9.7,9.7 l 0,138 c 0,5.4 4.3,9.7 9.7,9.7 l 123.1,0 c 5.4,0 9.7,-4.3 9.7,-9.7 l 0,-138 c 0,-5.4 -4.3,-9.7 -9.7,-9.7 l -12.5,0 c 1.7,-3.9 2.6,-8.1 2.6,-12.6 l 0,-5.3 c 0,-4.5 -0.9,-8.7 -2.6,-12.6 l 13.4,0 c 3.4,0 6.4,-1.7 8.2,-4.4 z m -63.4,-49.1 25,0 15.3,34.1 -27.8,0 -27.9,0 15.4,-34.1 z m 25,66.1 0,5.3 c 0,6.9 -5.6,12.6 -12.6,12.6 -7,0 -12.6,-5.6 -12.6,-12.6 l 0,-5.3 c 0,-6.9 5.6,-12.6 12.6,-12.6 7,0 12.6,5.6 12.6,12.6 z m 19.6,37.2 0,28 -38.5,0 c -5.4,0 -9.7,4.3 -9.7,9.7 0,5.4 4.3,9.7 9.7,9.7 l 38.6,0 0,23.8 -38.6,0 c -5.4,0 -9.7,4.3 -9.7,9.7 0,5.4 4.3,9.7 9.7,9.7 l 38.6,0 0,28 -103.8,0 0,-118.6 103.7,0 z M 258,308.7 c 0,5.4 -4.3,9.7 -9.7,9.7 l -2.4,0 c -5.4,0 -9.7,-4.3 -9.7,-9.7 0,-5.4 4.3,-9.7 9.7,-9.7 l 2.4,0 c 5.3,0 9.7,4.3 9.7,9.7 z m 168.8,-42.5 c 0,5.4 -4.3,9.7 -9.7,9.7 l -2.4,0 c -5.4,0 -9.7,-4.3 -9.7,-9.7 0,-5.4 4.3,-9.7 9.7,-9.7 l 2.4,0 c 5.4,0 9.7,4.3 9.7,9.7 z m 33.8,42.5 c 0,5.4 -4.3,9.7 -9.7,9.7 l -2.4,0 c -5.4,0 -9.7,-4.3 -9.7,-9.7 0,-5.4 4.3,-9.7 9.7,-9.7 l 2.4,0 c 5.3,0 9.7,4.3 9.7,9.7 z m 17.8,-92.6 -48.6,0 c 0.4,-1.1 0.6,-2.2 0.6,-3.4 0,-5.4 -4.3,-9.7 -9.7,-9.7 l -61.6,0 c -5.4,0 -9.7,4.3 -9.7,9.7 0,1.2 0.2,2.4 0.6,3.4 l -151.8,0 c 3.8,-6.1 5.9,-13.4 5.9,-21.1 0,-22.3 -18.2,-40.5 -40.5,-40.5 l -83.8,0 c -7.7,0 -14.9,2.2 -21.1,5.9 l 0,-66.2 C 58.7,78 45.5,64.8 29.3,64.8 13.1,64.8 0,78 0,94.2 l 0,263 c 0,5.4 4.3,9.7 9.7,9.7 5.4,0 9.7,-4.3 9.7,-9.7 l 0,-263 c 0,-5.5 4.5,-10 10,-10 5.5,0 10,4.5 10,10 l 0,167.2 c 0,5.4 4.3,9.7 9.7,9.7 5.4,0 9.7,-4.3 9.7,-9.7 l 0,-25.8 126,0 0,83.4 c 0,21.9 17.8,39.8 39.8,39.8 l 268.1,0 0,42.2 -321.9,0 c -5.4,0 -9.7,4.3 -9.7,9.7 0,5.4 4.3,9.7 9.7,9.7 l 282.5,0 0,21.1 c 0,5.4 4.3,9.7 9.7,9.7 l 39.3,0 c 5.4,0 9.7,-4.3 9.7,-9.7 l 0,-191.8 c 0,-18.5 -15.1,-33.6 -33.6,-33.6 z m -314.8,0 -83.8,0 c -11.6,0 -21.1,-9.5 -21.1,-21.1 0,-11.6 9.5,-21.1 21.1,-21.1 l 83.8,0 c 11.6,0 21.1,9.5 21.1,21.1 0,11.7 -9.4,21.1 -21.1,21.1 z m 329,215.6 -19.9,0 0,-11.4 19.9,0 0,11.4 z m 0,-92.4 -268.1,0 c -11.2,0 -20.4,-9.1 -20.4,-20.4 l 0,-83.4 274.3,0 c 7.8,0 14.2,6.4 14.2,14.2 l 0,89.6 z M 393,308.7 c 0,5.4 -4.3,9.7 -9.7,9.7 l -2.4,0 c -5.4,0 -9.7,-4.3 -9.7,-9.7 0,-5.4 4.3,-9.7 9.7,-9.7 l 2.4,0 c 5.4,0 9.7,4.3 9.7,9.7 z M 291.7,266.2 c 0,5.4 -4.3,9.7 -9.7,9.7 l -2.4,0 c -5.4,0 -9.7,-4.3 -9.7,-9.7 0,-5.4 4.3,-9.7 9.7,-9.7 l 2.4,0 c 5.4,0 9.7,4.3 9.7,9.7 z m 67.6,0 c 0,5.4 -4.3,9.7 -9.7,9.7 l -2.4,0 c -5.4,0 -9.7,-4.3 -9.7,-9.7 0,-5.4 4.3,-9.7 9.7,-9.7 l 2.4,0 c 5.3,0 9.7,4.3 9.7,9.7 z m -33.8,42.5 c 0,5.4 -4.3,9.7 -9.7,9.7 l -2.4,0 c -5.4,0 -9.7,-4.3 -9.7,-9.7 0,-5.4 4.3,-9.7 9.7,-9.7 l 2.4,0 c 5.4,0 9.7,4.3 9.7,9.7 z" /></g></svg>