<svg version="1.1"
	 xmlns="http://www.w3.org/2000/svg" xmlns:xlink="http://www.w3.org/1999/xlink" xmlns:a="http://ns.adobe.com/AdobeSVGViewerExtensions/3.0/"
	 x="0px" y="0px" width="512px" height="474.9px" viewBox="0 0 512 474.9"
	 style="overflow:scroll;enable-background:new 0 0 512 474.9;" xml:space="preserve">
<style type="text/css">
	.st0{fill:#FFC600;}
	.st1{fill:#4E4E56;}
</style>
<defs>
</defs>
<g>
	<g>
		<path class="st0" d="M425,0c-48,0-87,38.9-87,87s38.9,87,87,87c48,0,87-38.9,87-87S473.1,0,425,0z M425,154c-37,0-67-30-67-67
			s30-67,67-67c37,0,67,30,67,67S462,154,425,154z"/>
		<g>
			<path class="st1" d="M400.4,119.7v-11.9c1.7-1.5,4.1-3.6,7.1-6.2s5.5-4.7,7.2-6.2c1.7-1.5,3.7-3.3,5.9-5.6c2.3-2.2,4-4.1,5.1-5.7
				c2.9-4.1,4.4-7.6,4.4-10.6c0-5.3-2.4-8-7.1-8c-2.3,0-4,0.8-5.4,2.4s-2,3.9-2,6.9h-15.5c0-7.5,2.2-13.2,6.5-17.1
				c4.4-3.9,10.1-5.8,17.2-5.8c7.1,0,12.6,2,16.6,6.1s5.9,8.9,5.9,14.6c0,4.3-0.9,8.1-2.8,11.4c-1.1,1.9-2.1,3.5-2.9,4.8
				c-0.8,1.3-2.2,2.9-4,4.9c-1.9,1.9-3.3,3.4-4.1,4.2c-0.9,0.9-2.5,2.4-4.8,4.5c-2.4,2.1-3.8,3.5-4.5,4.1h24.5v13.1H400.4z"/>
		</g>
	</g>
	<g>
		<path class="st1" d="M463.9,346.1c-0.7,0-1.3-0.1-2-0.2c-0.6-0.1-1.3-0.3-1.9-0.6c-0.6-0.3-1.2-0.6-1.7-0.9
			c-0.6-0.4-1.1-0.8-1.5-1.3c-0.5-0.5-0.9-1-1.3-1.5c-0.4-0.5-0.7-1.1-0.9-1.7s-0.4-1.2-0.6-1.9c-0.1-0.6-0.2-1.3-0.2-2
			c0-2.6,1.1-5.2,2.9-7.1c0.5-0.5,1-0.9,1.5-1.2c0.5-0.4,1.1-0.7,1.7-0.9c0.6-0.3,1.2-0.4,1.9-0.6c1.3-0.3,2.6-0.3,3.9,0
			c0.6,0.1,1.3,0.3,1.9,0.6c0.6,0.3,1.2,0.6,1.7,0.9c0.6,0.4,1.1,0.8,1.5,1.2c1.9,1.9,2.9,4.4,2.9,7.1c0,0.7-0.1,1.3-0.2,2
			c-0.1,0.6-0.3,1.3-0.6,1.9s-0.6,1.2-0.9,1.7c-0.4,0.6-0.8,1.1-1.2,1.5c-0.5,0.5-1,0.9-1.5,1.3c-0.5,0.4-1.1,0.7-1.7,0.9
			c-0.6,0.3-1.2,0.4-1.9,0.6S464.5,346.1,463.9,346.1z"/>
		<path class="st1" d="M469.1,246.8H200.9v-19.9c0-26.3-21.4-47.7-47.7-47.7H73.7v-58.1C73.7,86,45.1,57.4,10,57.4
			c-5.5,0-10,4.5-10,10v338.5c0,5.5,4.5,10,10,10h5.5v49c0,5.5,4.5,10,10,10h45.1c5.5,0,10-4.5,10-10v-49h350.8v49
			c0,5.5,4.5,10,10,10h45.1c5.5,0,10-4.5,10-10v-49h5.5c5.5,0,10-4.5,10-10V289.7C512,266,492.8,246.8,469.1,246.8z M492,395.9H20
			v-49.8h160.9V368c0,5.5,4.5,10,10,10H492V395.9z M180.9,266.8v59.3H20v-59.3H180.9z M492,289.7V358H200.9v-11.9h226.2
			c5.5,0,10-4.5,10-10c0-5.5-4.5-10-10-10H200.9v-59.3h268.2C481.7,266.8,492,277.1,492,289.7z M153.2,199.2
			c15.3,0,27.7,12.4,27.7,27.7v19.9H73.7v-47.6H153.2z M20,78.5c19.3,4.5,33.7,21.9,33.7,42.6v125.7H20V78.5z M60.6,454.9H35.5v-39
			h25.1V454.9z M476.5,454.9h-25.1v-39h25.1V454.9z"/>
	</g>
</g>
</svg>
