<svg version="1.1"
	 xmlns="http://www.w3.org/2000/svg" xmlns:xlink="http://www.w3.org/1999/xlink" xmlns:a="http://ns.adobe.com/AdobeSVGViewerExtensions/3.0/"
	 x="0px" y="0px" width="512px" height="551.9px" viewBox="0 0 512 551.9"
	 style="overflow:scroll;enable-background:new 0 0 512 551.9;" xml:space="preserve">
<style type="text/css">
	.st0{fill:#4E4E56;}
	.st1{fill:#FFC600;}
</style>
<defs>
</defs>
<g>
	<g>
		<path id="XMLID_2_" class="st0" d="M141.9,359.7c1.8-2.8,2.1-6.2,0.7-9.2l-24.1-53.5c-1.6-3.5-5-5.7-8.8-5.7H72.2
			c-3.8,0-7.3,2.2-8.9,5.7l-24.1,53.5c-1.3,3-1.1,6.5,0.7,9.2c1.8,2.8,4.9,4.4,8.1,4.4h13.4c-1.7,3.9-2.6,8.1-2.6,12.6v5.3
			c0,4.5,0.9,8.7,2.6,12.6H9.7c-5.4,0-9.7,4.3-9.7,9.7v138c0,5.4,4.3,9.7,9.7,9.7h123.1c5.4,0,9.7-4.3,9.7-9.7v-138
			c0-5.4-4.3-9.7-9.7-9.7h-12.5c1.7-3.9,2.6-8.1,2.6-12.6v-5.3c0-4.5-0.9-8.7-2.6-12.6h13.4C137.1,364.1,140.1,362.4,141.9,359.7z
			 M78.5,310.6h25l15.3,34.1H91H63.1L78.5,310.6z M103.5,376.7v5.3c0,6.9-5.6,12.6-12.6,12.6s-12.6-5.6-12.6-12.6v-5.3
			c0-6.9,5.6-12.6,12.6-12.6S103.5,369.7,103.5,376.7z M123.1,413.9v28H84.6c-5.4,0-9.7,4.3-9.7,9.7c0,5.4,4.3,9.7,9.7,9.7h38.6
			v23.8H84.6c-5.4,0-9.7,4.3-9.7,9.7c0,5.4,4.3,9.7,9.7,9.7h38.6v28H19.4V413.9H123.1z M258,308.7c0,5.4-4.3,9.7-9.7,9.7h-2.4
			c-5.4,0-9.7-4.3-9.7-9.7s4.3-9.7,9.7-9.7h2.4C253.6,299,258,303.3,258,308.7z M426.8,266.2c0,5.4-4.3,9.7-9.7,9.7h-2.4
			c-5.4,0-9.7-4.3-9.7-9.7c0-5.4,4.3-9.7,9.7-9.7h2.4C422.5,256.5,426.8,260.8,426.8,266.2z M460.6,308.7c0,5.4-4.3,9.7-9.7,9.7
			h-2.4c-5.4,0-9.7-4.3-9.7-9.7s4.3-9.7,9.7-9.7h2.4C456.2,299,460.6,303.3,460.6,308.7z M478.4,216.1h-48.6
			c0.4-1.1,0.6-2.2,0.6-3.4c0-5.4-4.3-9.7-9.7-9.7h-61.6c-5.4,0-9.7,4.3-9.7,9.7c0,1.2,0.2,2.4,0.6,3.4H198.2
			c3.8-6.1,5.9-13.4,5.9-21.1c0-22.3-18.2-40.5-40.5-40.5H79.8c-7.7,0-14.9,2.2-21.1,5.9V94.2c0-16.2-13.2-29.4-29.4-29.4
			S0,78,0,94.2v263c0,5.4,4.3,9.7,9.7,9.7s9.7-4.3,9.7-9.7v-263c0-5.5,4.5-10,10-10c5.5,0,10,4.5,10,10v167.2c0,5.4,4.3,9.7,9.7,9.7
			s9.7-4.3,9.7-9.7v-25.8h126v83.4c0,21.9,17.8,39.8,39.8,39.8h268.1v42.2H170.8c-5.4,0-9.7,4.3-9.7,9.7s4.3,9.7,9.7,9.7h282.5v21.1
			c0,5.4,4.3,9.7,9.7,9.7h39.3c5.4,0,9.7-4.3,9.7-9.7V249.7C512,231.2,496.9,216.1,478.4,216.1z M163.6,216.1H79.8
			c-11.6,0-21.1-9.5-21.1-21.1c0-11.6,9.5-21.1,21.1-21.1h83.8c11.6,0,21.1,9.5,21.1,21.1C184.7,206.7,175.3,216.1,163.6,216.1z
			 M492.6,431.7h-19.9v-11.4h19.9V431.7z M492.6,339.3H224.5c-11.2,0-20.4-9.1-20.4-20.4v-83.4h274.3c7.8,0,14.2,6.4,14.2,14.2
			V339.3z M393,308.7c0,5.4-4.3,9.7-9.7,9.7h-2.4c-5.4,0-9.7-4.3-9.7-9.7s4.3-9.7,9.7-9.7h2.4C388.7,299,393,303.3,393,308.7z
			 M291.7,266.2c0,5.4-4.3,9.7-9.7,9.7h-2.4c-5.4,0-9.7-4.3-9.7-9.7c0-5.4,4.3-9.7,9.7-9.7h2.4C287.4,256.5,291.7,260.8,291.7,266.2
			z M359.3,266.2c0,5.4-4.3,9.7-9.7,9.7h-2.4c-5.4,0-9.7-4.3-9.7-9.7c0-5.4,4.3-9.7,9.7-9.7h2.4
			C354.9,256.5,359.3,260.8,359.3,266.2z M325.5,308.7c0,5.4-4.3,9.7-9.7,9.7h-2.4c-5.4,0-9.7-4.3-9.7-9.7s4.3-9.7,9.7-9.7h2.4
			C321.2,299,325.5,303.3,325.5,308.7z"/>
	</g>
	<g>
		<path class="st1" d="M425,0c-48,0-87,38.9-87,87s38.9,87,87,87c48,0,87-38.9,87-87S473.1,0,425,0z M425,154c-37,0-67-30-67-67
			s30-67,67-67c37,0,67,30,67,67S462,154,425,154z"/>
		<g>
			<path class="st0" d="M400.4,119.7v-11.9c1.7-1.5,4.1-3.6,7.1-6.2c3.1-2.6,5.5-4.7,7.1-6.2c1.7-1.5,3.7-3.3,5.9-5.6
				c2.3-2.2,4-4.1,5.1-5.7c2.9-4.1,4.4-7.6,4.4-10.6c0-5.3-2.4-8-7.1-8c-2.3,0-4,0.8-5.4,2.4c-1.3,1.6-2,3.9-2,6.9h-15.5
				c0-7.5,2.2-13.2,6.5-17.1c4.4-3.9,10.1-5.8,17.2-5.8c7.1,0,12.6,2,16.6,6.1c4,4,5.9,8.9,5.9,14.6c0,4.3-0.9,8.1-2.8,11.4
				c-1.1,1.9-2.1,3.5-2.9,4.8c-0.8,1.3-2.2,2.9-4,4.9c-1.9,1.9-3.3,3.4-4.1,4.2c-0.9,0.9-2.5,2.4-4.8,4.5c-2.4,2.1-3.8,3.5-4.5,4.1
				h24.5v13.1H400.4z"/>
		</g>
	</g>
</g>
</svg>
