<svg version="1.1"
	 xmlns="http://www.w3.org/2000/svg" xmlns:xlink="http://www.w3.org/1999/xlink" xmlns:a="http://ns.adobe.com/AdobeSVGViewerExtensions/3.0/"
	 x="0px" y="0px" width="1032px" height="1032px" viewBox="0 0 1032 1032"
	 style="overflow:scroll;enable-background:new 0 0 1032 1032;" xml:space="preserve">
<style type="text/css">
	.st0{fill:none;}
	.st1{fill:#FFC600;}
</style>
<defs>
</defs>
<g>
	<rect class="st0" width="1032" height="1032"/>
	<g>
		<g>
			<path class="st1" d="M455.8,569.5c-1.4,0-2.7-0.3-4-1l-54.5-28.6l-54.5,28.6c-2.9,1.5-6.3,1.3-9-0.6c-2.6-1.9-3.9-5.1-3.4-8.3
				l10.4-60.7l-44.1-43c-2.3-2.3-3.2-5.7-2.2-8.7c1-3.1,3.7-5.3,6.9-5.8l60.9-8.8l27.2-55.2c1.4-2.9,4.4-4.7,7.6-4.7
				s6.2,1.8,7.6,4.7l27.2,55.2l60.9,8.8c3.2,0.5,5.9,2.7,6.9,5.8c1,3.1,0.2,6.5-2.2,8.7l-44.1,43l10.4,60.7c0.5,3.2-0.8,6.4-3.4,8.3
				C459.3,568.9,457.6,569.5,455.8,569.5z M397.4,521.7c1.4,0,2.7,0.3,4,1l43.2,22.7l-8.2-48c-0.5-2.8,0.4-5.6,2.5-7.5l34.9-34
				l-48.2-7c-2.8-0.4-5.2-2.1-6.4-4.7l-21.6-43.7l-21.6,43.7c-1.2,2.5-3.6,4.3-6.4,4.7l-48.2,7l34.9,34c2,2,2.9,4.8,2.5,7.5l-8.2,48
				l43.2-22.7C394.7,522,396,521.7,397.4,521.7z"/>
		</g>
		<g>
			<path class="st1" d="M259.8,659.4c-1.4,0-2.7-0.3-4-1l-54.5-28.6l-54.5,28.6c-2.9,1.5-6.3,1.3-9-0.6c-2.6-1.9-3.9-5.1-3.4-8.3
				l10.4-60.7l-44.1-43c-2.3-2.3-3.2-5.7-2.2-8.7c1-3.1,3.7-5.3,6.9-5.8l60.9-8.8l27.2-55.2c1.4-2.9,4.4-4.7,7.6-4.7
				c3.2,0,6.2,1.8,7.6,4.7l27.2,55.2l60.9,8.8c3.2,0.5,5.9,2.7,6.9,5.8c1,3.1,0.2,6.5-2.2,8.7l-44.1,43l10.4,60.7
				c0.5,3.2-0.8,6.4-3.4,8.3C263.3,658.9,261.5,659.4,259.8,659.4z M201.3,611.6c1.4,0,2.7,0.3,4,1l43.2,22.7l-8.2-48
				c-0.5-2.8,0.4-5.6,2.5-7.5l34.9-34l-48.2-7c-2.8-0.4-5.2-2.1-6.4-4.7l-21.6-43.7L179.8,534c-1.2,2.5-3.6,4.3-6.4,4.7l-48.2,7
				l34.9,34c2,2,2.9,4.8,2.5,7.5l-8.2,48l43.2-22.7C198.6,612,200,611.6,201.3,611.6z"/>
		</g>
		<g>
			<path class="st1" d="M571.2,567.9c-2.6-1.9-3.9-5.1-3.4-8.3l10.4-60.7l-44.1-43c-2.3-2.3-3.2-5.7-2.2-8.7c1-3.1,3.7-5.3,6.9-5.8
				l60.9-8.8l27.2-55.2c1.4-2.9,4.4-4.7,7.6-4.7s6.2,1.8,7.6,4.7l27.2,55.2l60.9,8.8c3.2,0.5,5.9,2.7,6.9,5.8c1,3.1,0.2,6.5-2.2,8.7
				l-44.1,43l10.4,60.7c0.5,3.2-0.8,6.4-3.4,8.3c-2.6,1.9-6.1,2.2-9,0.6l-54.5-28.6l-54.5,28.6c-1.2,0.7-2.6,1-4,1
				C574.4,569.5,572.7,568.9,571.2,567.9z M638.6,522.7l43.2,22.7l-8.2-48c-0.5-2.8,0.4-5.6,2.5-7.5l34.9-34l-48.2-7
				c-2.8-0.4-5.2-2.1-6.4-4.7l-21.6-43.7L613,444.1c-1.2,2.5-3.6,4.3-6.4,4.7l-48.2,7l34.9,34c2,2,2.9,4.8,2.5,7.5l-8.2,48
				l43.2-22.7c1.2-0.7,2.6-1,4-1S637.3,522,638.6,522.7z"/>
		</g>
		<g>
			<path class="st1" d="M767.2,657.8c-2.6-1.9-3.9-5.1-3.4-8.3l10.4-60.7l-44.1-43c-2.3-2.3-3.2-5.7-2.2-8.7c1-3.1,3.7-5.3,6.9-5.8
				l60.9-8.8l27.2-55.2c1.4-2.9,4.4-4.7,7.6-4.7s6.2,1.8,7.6,4.7l27.2,55.2l60.9,8.8c3.2,0.5,5.9,2.7,6.9,5.8c1,3.1,0.2,6.5-2.2,8.7
				l-44.1,43l10.4,60.7c0.5,3.2-0.8,6.4-3.4,8.3c-2.6,1.9-6.1,2.2-9,0.6l-54.5-28.6l-54.5,28.6c-1.2,0.7-2.6,1-4,1
				C770.5,659.4,768.7,658.9,767.2,657.8z M834.6,612.6l43.2,22.7l-8.2-48c-0.5-2.8,0.4-5.6,2.5-7.5l34.9-34l-48.2-7
				c-2.8-0.4-5.2-2.1-6.4-4.7l-21.6-43.7L809.1,534c-1.2,2.5-3.6,4.3-6.4,4.7l-48.2,7l34.9,34c2,2,2.9,4.8,2.5,7.5l-8.2,48
				l43.2-22.7c1.2-0.7,2.6-1,4-1S833.4,612,834.6,612.6z"/>
		</g>
	</g>
</g>
</svg>
