<svg version="1.1"
	 xmlns="http://www.w3.org/2000/svg" xmlns:xlink="http://www.w3.org/1999/xlink" xmlns:a="http://ns.adobe.com/AdobeSVGViewerExtensions/3.0/"
	 x="0px" y="0px" width="1032px" height="1032px" viewBox="0 0 1032 1032"
	 style="overflow:scroll;enable-background:new 0 0 1032 1032;" xml:space="preserve">
<style type="text/css">
	.st0{fill:#FFC600;}
	.st1{fill:none;}
</style>
<defs>
</defs>
<g>
	<g>
		<g>
			<path class="st0" d="M574.4,536.6c-1.4,0-2.7-0.3-4-1L516,507l-54.5,28.6c-2.9,1.5-6.3,1.3-9-0.6c-2.6-1.9-3.9-5.1-3.4-8.3
				l10.4-60.7l-44.1-43c-2.3-2.3-3.2-5.7-2.2-8.7c1-3.1,3.7-5.3,6.9-5.8l60.9-8.8l27.2-55.2c1.4-2.9,4.4-4.8,7.6-4.8l0,0
				c3.2,0,6.2,1.8,7.6,4.8l27.2,55.2l60.9,8.8c3.2,0.5,5.9,2.7,6.9,5.8c1,3.1,0.2,6.5-2.2,8.7l-44.1,43l10.4,60.7
				c0.5,3.2-0.8,6.4-3.4,8.3C578,536.1,576.2,536.6,574.4,536.6z M439.8,422.9l34.9,34c2,2,2.9,4.8,2.5,7.5l-8.2,48.1l43.2-22.7
				c2.5-1.3,5.4-1.3,7.9,0l43.2,22.7l-8.2-48.1c-0.5-2.8,0.4-5.6,2.5-7.5l34.9-34l-48.2-7c-2.8-0.4-5.2-2.1-6.4-4.7L516,367.5
				l-21.6,43.7c-1.2,2.5-3.6,4.3-6.4,4.7L439.8,422.9z"/>
		</g>
		<g>
			<g>
				<path class="st0" d="M382.8,617.9c-1.4,0-2.7-0.3-4-1l-54.5-28.6l-54.5,28.6c-2.9,1.5-6.3,1.3-9-0.6c-2.6-1.9-3.9-5.1-3.4-8.3
					l10.4-60.7l-44.1-43c-2.3-2.3-3.2-5.7-2.2-8.7c1-3.1,3.7-5.3,6.9-5.8l60.9-8.8l27.2-55.2c1.4-2.9,4.4-4.8,7.6-4.8
					c3.2,0,6.2,1.8,7.6,4.8l27.2,55.2l60.9,8.8c3.2,0.5,5.9,2.7,6.9,5.8c1,3.1,0.2,6.5-2.2,8.7l-44.1,43l10.4,60.7
					c0.5,3.2-0.8,6.4-3.4,8.3C386.3,617.4,384.6,617.9,382.8,617.9z M324.4,570.2c1.4,0,2.7,0.3,4,1l43.2,22.7l-8.2-48.1
					c-0.5-2.8,0.4-5.6,2.5-7.5l34.9-34l-48.2-7c-2.8-0.4-5.2-2.1-6.4-4.7l-21.6-43.7l-21.6,43.7c-1.2,2.5-3.6,4.3-6.4,4.7l-48.2,7
					l34.9,34c2,2,2.9,4.8,2.5,7.5l-8.2,48.1l43.2-22.7C321.7,570.5,323,570.2,324.4,570.2z"/>
			</g>
			<g>
				<path class="st0" d="M766.1,617.9c-1.4,0-2.7-0.3-4-1l-54.5-28.6l-54.5,28.6c-2.9,1.5-6.3,1.3-9-0.6c-2.6-1.9-3.9-5.1-3.4-8.3
					l10.4-60.7l-44.1-43c-2.3-2.3-3.2-5.7-2.2-8.7c1-3.1,3.7-5.3,6.9-5.8l60.9-8.8l27.2-55.2c1.4-2.9,4.4-4.8,7.6-4.8
					c3.2,0,6.2,1.8,7.6,4.8l27.2,55.2l60.9,8.8c3.2,0.5,5.9,2.7,6.9,5.8c1,3.1,0.2,6.5-2.2,8.7l-44.1,43l10.4,60.7
					c0.5,3.2-0.8,6.4-3.4,8.3C769.6,617.4,767.8,617.9,766.1,617.9z M707.6,570.2c1.4,0,2.7,0.3,4,1l43.2,22.7l-8.2-48.1
					c-0.5-2.8,0.4-5.6,2.5-7.5l34.9-34l-48.2-7c-2.8-0.4-5.2-2.1-6.4-4.7l-21.6-43.7L686,492.5c-1.2,2.5-3.6,4.3-6.4,4.7l-48.2,7
					l34.9,34c2,2,2.9,4.8,2.5,7.5l-8.2,48.1l43.2-22.7C704.9,570.5,706.3,570.2,707.6,570.2z"/>
			</g>
		</g>
		<g>
			<g>
				<path class="st0" d="M194.3,692.3c-1.4,0-2.7-0.3-4-1l-54.5-28.6l-54.5,28.6c-2.9,1.5-6.3,1.3-9-0.6c-2.6-1.9-3.9-5.1-3.4-8.3
					l10.4-60.7l-44.1-43c-2.3-2.3-3.2-5.7-2.2-8.7c1-3.1,3.7-5.3,6.9-5.8l60.9-8.8l27.2-55.2c1.4-2.9,4.4-4.8,7.6-4.8
					c3.2,0,6.2,1.8,7.6,4.8l27.2,55.2l60.9,8.8c3.2,0.5,5.9,2.7,6.9,5.8c1,3.1,0.2,6.5-2.2,8.7l-44.1,43l10.4,60.7
					c0.5,3.2-0.8,6.4-3.4,8.3C197.8,691.7,196,692.3,194.3,692.3z M135.8,644.5c1.4,0,2.7,0.3,4,1l43.2,22.7l-8.2-48.1
					c-0.5-2.8,0.4-5.6,2.5-7.5l34.9-34l-48.2-7c-2.8-0.4-5.2-2.1-6.4-4.7l-21.6-43.7l-21.6,43.7c-1.2,2.5-3.6,4.3-6.4,4.7l-48.2,7
					l34.9,34c2,2,2.9,4.8,2.5,7.5l-8.2,48.1l43.2-22.7C133.1,644.8,134.5,644.5,135.8,644.5z"/>
			</g>
			<g>
				<path class="st0" d="M954.6,692.3c-1.4,0-2.7-0.3-4-1l-54.5-28.6l-54.5,28.6c-2.9,1.5-6.3,1.3-9-0.6c-2.6-1.9-3.9-5.1-3.4-8.3
					l10.4-60.7l-44.1-43c-2.3-2.3-3.2-5.7-2.2-8.7c1-3.1,3.7-5.3,6.9-5.8l60.9-8.8l27.2-55.2c1.4-2.9,4.4-4.8,7.6-4.8
					c3.2,0,6.2,1.8,7.6,4.8l27.2,55.2l60.9,8.8c3.2,0.5,5.9,2.7,6.9,5.8c1,3.1,0.2,6.5-2.2,8.7l-44.1,43l10.4,60.7
					c0.5,3.2-0.8,6.4-3.4,8.3C958.1,691.7,956.4,692.3,954.6,692.3z M896.2,644.5c1.4,0,2.7,0.3,4,1l43.2,22.7l-8.2-48.1
					c-0.5-2.8,0.4-5.6,2.5-7.5l34.9-34l-48.2-7c-2.8-0.4-5.2-2.1-6.4-4.7l-21.6-43.7l-21.6,43.7c-1.2,2.5-3.6,4.3-6.4,4.7l-48.2,7
					l34.9,34c2,2,2.9,4.8,2.5,7.5l-8.2,48.1l43.2-22.7C893.4,644.8,894.8,644.5,896.2,644.5z"/>
			</g>
		</g>
	</g>
	<rect class="st1" width="1032" height="1032"/>
</g>
</svg>
