<svg version="1.1"
	 xmlns="http://www.w3.org/2000/svg" xmlns:xlink="http://www.w3.org/1999/xlink" xmlns:a="http://ns.adobe.com/AdobeSVGViewerExtensions/3.0/"
	 x="0px" y="0px" width="477.7px" height="478.6px" viewBox="0 0 477.7 478.6"
	 style="overflow:scroll;enable-background:new 0 0 477.7 478.6;" xml:space="preserve">
<style type="text/css">
	.st0{fill:#4E4E56;}
	.st1{fill:#FFC600;}
</style>
<defs>
</defs>
<g>
	<path class="st0" d="M359.5,111.7h-43.1c-5,0-9.1,4.1-9.1,9.1v59c0,5,4.1,9.1,9.1,9.1h43.1c5,0,9.1-4.1,9.1-9.1v-59
		C368.6,115.7,364.6,111.7,359.5,111.7z M350.4,170.6h-24.9v-40.7h24.9V170.6z"/>
	<path class="st0" d="M359.5,206.3h-43.1c-5,0-9.1,4.1-9.1,9.1v59c0,5,4.1,9.1,9.1,9.1h43.1c5,0,9.1-4.1,9.1-9.1v-59
		C368.6,210.4,364.6,206.3,359.5,206.3z M350.4,265.3h-24.9v-40.7h24.9V265.3z"/>
	<path class="st0" d="M161.3,111.7h-43.1c-5,0-9.1,4.1-9.1,9.1v59c0,5,4.1,9.1,9.1,9.1h43.1c5,0,9.1-4.1,9.1-9.1v-59
		C170.4,115.7,166.4,111.7,161.3,111.7z M152.2,170.6h-24.9v-40.7h24.9V170.6z"/>
	<path class="st0" d="M161.3,206.3h-43.1c-5,0-9.1,4.1-9.1,9.1v59c0,5,4.1,9.1,9.1,9.1h43.1c5,0,9.1-4.1,9.1-9.1v-59
		C170.4,210.4,166.4,206.3,161.3,206.3z M152.2,265.3h-24.9v-40.7h24.9V265.3z"/>
	<path class="st0" d="M468.6,425.5h-16.5V219.2c0-5-4.1-9.1-9.1-9.1h-28.2v-145c0-5-4.1-9.1-9.1-9.1H353c-5,0-9.1,4.1-9.1,9.1
		s4.1,9.1,9.1,9.1h43.6v351.3h-27.9v-76.7c0-14-11.4-25.4-25.4-25.4h-1.5c-14,0-25.4,11.4-25.4,25.4v76.7h-25.2v-93
		c0-17-13.8-30.8-30.8-30.8h-42.8c-17,0-30.8,13.8-30.8,30.8v93h-25.2v-76.7c0-14-11.4-25.4-25.4-25.4h-1.5
		c-14,0-25.4,11.4-25.4,25.4v76.7H81.2V74.3h43.6c5,0,9.1-4.1,9.1-9.1s-4.1-9.1-9.1-9.1H72c-5,0-9.1,4.1-9.1,9.1v145H34.7
		c-5,0-9.1,4.1-9.1,9.1v206.3H9.1c-5,0-9.1,4.1-9.1,9.1v34.8c0,5,4.1,9.1,9.1,9.1h459.5c5,0,9.1-4.1,9.1-9.1v-34.8
		C477.7,429.6,473.7,425.5,468.6,425.5z M414.8,228.3h19.1v197.2h-19.1V228.3z M334.6,348.8c0-4,3.2-7.2,7.2-7.2h1.5
		c4,0,7.2,3.2,7.2,7.2v76.7h-15.9V348.8z M204.8,332.5c0-7,5.7-12.6,12.6-12.6h42.8c7,0,12.6,5.7,12.6,12.6v93h-68.1h0V332.5z
		 M127.3,348.8c0-4,3.2-7.2,7.2-7.2h1.5c4,0,7.2,3.2,7.2,7.2v76.7h-15.9h0V348.8z M43.8,228.3h19.1v197.2H43.8V228.3z M459.5,460.4
		H18.2v-16.6h441.3V460.4z"/>
	<path class="st0" d="M260.4,206.3h-43.1c-5,0-9.1,4.1-9.1,9.1v59c0,5,4.1,9.1,9.1,9.1h43.1c5,0,9.1-4.1,9.1-9.1v-59
		C269.5,210.4,265.5,206.3,260.4,206.3z M251.3,265.3h-24.9v-40.7h24.9V265.3z"/>
	<path class="st0" d="M269.5,147.1c0-5-4.1-9.1-9.1-9.1s-9.1,4.1-9.1,9.1v23.5h-24.9v-23.5c0-5-4.1-9.1-9.1-9.1
		c-5,0-9.1,4.1-9.1,9.1v32.6c0,5,4.1,9.1,9.1,9.1h43.1c5,0,9.1-4.1,9.1-9.1V147.1z"/>
	<g>
		<g>
			<path class="st1" d="M258.8,63.9c-0.4,0-0.9-0.1-1.3-0.3l-17.7-9.3l-17.7,9.3c-0.9,0.5-2.1,0.4-2.9-0.2c-0.9-0.6-1.3-1.7-1.1-2.7
				l3.4-19.7L207.3,27c-0.8-0.7-1-1.8-0.7-2.8c0.3-1,1.2-1.7,2.2-1.9l19.8-2.9l8.8-17.9c0.5-0.9,1.4-1.5,2.5-1.5l0,0
				c1.1,0,2,0.6,2.5,1.5l8.8,17.9l19.8,2.9c1,0.2,1.9,0.9,2.2,1.9c0.3,1,0.1,2.1-0.7,2.8L258.2,41l3.4,19.7c0.2,1-0.2,2.1-1.1,2.7
				C260,63.7,259.4,63.9,258.8,63.9z M215.1,27l11.3,11c0.7,0.6,0.9,1.6,0.8,2.4l-2.7,15.6l14-7.4c0.8-0.4,1.8-0.4,2.6,0l14,7.4
				l-2.7-15.6c-0.2-0.9,0.1-1.8,0.8-2.4l11.3-11L249,24.7c-0.9-0.1-1.7-0.7-2.1-1.5l-7-14.2l-7,14.2c-0.4,0.8-1.2,1.4-2.1,1.5
				L215.1,27z"/>
		</g>
		<g>
			<g>
				<path class="st1" d="M196.7,90.2c-0.4,0-0.9-0.1-1.3-0.3l-17.7-9.3L160,89.9c-0.9,0.5-2.1,0.4-2.9-0.2c-0.9-0.6-1.3-1.7-1.1-2.7
					l3.4-19.7l-14.3-13.9c-0.8-0.7-1-1.8-0.7-2.8c0.3-1,1.2-1.7,2.2-1.9l19.8-2.9l8.8-17.9c0.5-0.9,1.4-1.5,2.5-1.5
					c1.1,0,2,0.6,2.5,1.5l8.8,17.9l19.8,2.9c1,0.2,1.9,0.9,2.2,1.9c0.3,1,0.1,2.1-0.7,2.8L196,67.3l3.4,19.7c0.2,1-0.2,2.1-1.1,2.7
					C197.8,90.1,197.2,90.2,196.7,90.2z M177.7,74.8c0.4,0,0.9,0.1,1.3,0.3l14,7.4l-2.7-15.6c-0.2-0.9,0.1-1.8,0.8-2.4l11.3-11
					l-15.7-2.3c-0.9-0.1-1.7-0.7-2.1-1.5l-7-14.2l-7,14.2c-0.4,0.8-1.2,1.4-2.1,1.5L153,53.4l11.3,11c0.7,0.6,0.9,1.6,0.8,2.4
					l-2.7,15.6l14-7.4C176.8,74.9,177.3,74.8,177.7,74.8z"/>
			</g>
			<g>
				<path class="st1" d="M321,90.2c-0.4,0-0.9-0.1-1.3-0.3L302,80.6l-17.7,9.3c-0.9,0.5-2.1,0.4-2.9-0.2c-0.9-0.6-1.3-1.7-1.1-2.7
					l3.4-19.7l-14.3-13.9c-0.8-0.7-1-1.8-0.7-2.8c0.3-1,1.2-1.7,2.2-1.9l19.8-2.9l8.8-17.9c0.5-0.9,1.4-1.5,2.5-1.5
					c1.1,0,2,0.6,2.5,1.5l8.8,17.9l19.8,2.9c1,0.2,1.9,0.9,2.2,1.9c0.3,1,0.1,2.1-0.7,2.8l-14.3,13.9l3.4,19.7
					c0.2,1-0.2,2.1-1.1,2.7C322.1,90.1,321.6,90.2,321,90.2z M302,74.8c0.4,0,0.9,0.1,1.3,0.3l14,7.4l-2.7-15.6
					c-0.2-0.9,0.1-1.8,0.8-2.4l11.3-11l-15.7-2.3c-0.9-0.1-1.7-0.7-2.1-1.5l-7-14.2l-7,14.2c-0.4,0.8-1.2,1.4-2.1,1.5l-15.7,2.3
					l11.3,11c0.7,0.6,0.9,1.6,0.8,2.4l-2.7,15.6l14-7.4C301.2,74.9,301.6,74.8,302,74.8z"/>
			</g>
		</g>
	</g>
</g>
</svg>
