<svg version="1.1"
	 xmlns="http://www.w3.org/2000/svg" xmlns:xlink="http://www.w3.org/1999/xlink" xmlns:a="http://ns.adobe.com/AdobeSVGViewerExtensions/3.0/"
	 x="0px" y="0px" width="512px" height="551.9px" viewBox="0 0 512 551.9"
	 style="overflow:scroll;enable-background:new 0 0 512 551.9;" xml:space="preserve">
<style type="text/css">
	.st0{fill:#43B7E8;}
	.st1{fill:#4E4E56;}
</style>
<defs>
</defs>
<g>
	<g>
		<path class="st0" d="M471.7,13.2c-2.2-1.5-5.3-0.8-6.7,1.4c-1.5,2.2-0.8,5.3,1.4,6.7c13.2,8.7,21.7,21.1,24.7,35.6
			c-2.2-1.7-4.7-3.4-7.5-5c-14.4-8.1-29.4-9.4-43.6-3.7c-19.9,8-29.7,3.6-35.4-0.4c-1.6-1.1-3.1-2.4-4.7-4c-1.9-1.9-5-1.9-6.9,0
			c-1.9,1.9-1.9,5,0,6.9c0.9,0.9,1.7,1.7,2.6,2.4c-5.1,7.1-17.1,10.3-24.1,11.3c-2.7-5.3-7.8-17.4-3.7-26.8
			c9.1-20.6,37.3-27.8,58.7-27.8c10.1,0,20.3,2,29.4,5.9c2.5,1.1,5.3-0.1,6.4-2.6c1.1-2.5-0.1-5.3-2.6-6.4
			C449.3,2.3,437.8,0,426.4,0c-38.8,0-60.3,17.4-67.5,33.6c-6.5,14.6,2,31.9,4.9,37l-0.4,4.1c-8.7,1.1-15.4,8.5-15.4,17.5
			c0,7.8,5,14.4,12.1,16.8c-1.4,15.6,5.3,31.1,17.7,40.7c1.9,0.6,23.8,17.3,23.8,17.3c6.4,4.6,13.9,7,21.4,7c7.5,0,15-2.3,21.4-7
			c0,0,16.5-10.8,23.4-17c12.6-9.6,19.5-25.2,18.1-41c7.1-2.3,12.1-9,12.1-16.8c0-9-6.7-16.4-15.4-17.5l-0.5-5.6
			c-0.3-2.7-2.6-4.6-5.3-4.4c-2.7,0.3-4.6,2.6-4.4,5.3l3.8,39.6c1.2,12.9-4.5,25.6-14.9,33.2l-22.5,16.4c-9.4,6.8-22,6.8-31.3,0
			l-22.5-16.4c-10.5-7.6-16.2-20.3-15-33.2l3.4-35.7c7.4-1.1,22.9-4.7,30.4-15.3c10.9,5.6,24.1,5.1,40-1.3c11.4-4.6,23.2-3.6,34.9,3
			c9.2,5.1,14.9,11.9,14.9,11.9c0.9,1.1,2.3,1.7,3.7,1.7c0.6,0,1.1-0.1,1.7-0.3c1.9-0.7,3.2-2.5,3.2-4.6
			C502.1,45.9,491.3,26,471.7,13.2z M361,98.7c-2-1.4-3.4-3.8-3.4-6.5c0-3.2,1.9-6,4.7-7.2L361,98.7z M488.1,92.2
			c0,2.7-1.3,5.1-3.4,6.5L483.4,85C486.2,86.2,488.1,89,488.1,92.2z"/>
		<g>
			<g>
				<path class="st0" d="M398.5,96.8c-2.7,0-4.9,2.2-4.9,4.9v6.6c0,2.7,2.2,4.9,4.9,4.9s4.9-2.2,4.9-4.9v-6.6
					C403.3,98.9,401.1,96.8,398.5,96.8z"/>
			</g>
		</g>
		<g>
			<g>
				<path class="st0" d="M460.2,82.3c-3.4-3.4-8-5.3-12.8-5.3s-9.4,1.9-12.8,5.3c-1.9,1.9-1.9,5,0,6.9c1.9,1.9,5,1.9,6.9,0
					c1.6-1.6,3.7-2.5,6-2.5s4.4,0.9,6,2.5c0.9,0.9,2.2,1.4,3.4,1.4c1.2,0,2.5-0.5,3.4-1.4C462.1,87.2,462.1,84.2,460.2,82.3z"/>
			</g>
		</g>
		<g>
			<g>
				<path class="st0" d="M411.3,82.3c-3.4-3.4-8-5.3-12.8-5.3s-9.4,1.9-12.8,5.3c-1.9,1.9-1.9,5,0,6.9c1.9,1.9,5,1.9,6.9,0
					c1.6-1.6,3.7-2.5,6-2.5s4.4,0.9,6,2.5c0.9,0.9,2.2,1.4,3.4,1.4c1.2,0,2.5-0.5,3.4-1.4C413.2,87.2,413.2,84.2,411.3,82.3z"/>
			</g>
		</g>
		<g>
			<g>
				<path class="st0" d="M447.3,96.8c-2.7,0-4.9,2.2-4.9,4.9v6.6c0,2.7,2.2,4.9,4.9,4.9s4.9-2.2,4.9-4.9v-6.6
					C452.2,98.9,450,96.8,447.3,96.8z"/>
			</g>
		</g>
		<g>
			<g>
				<path class="st0" d="M437,134.3c-1.9-1.9-5-1.9-6.9,0c-4,4-10.5,4-14.5,0c-1.9-1.9-5-1.9-6.9,0c-1.9,1.9-1.9,5,0,6.9
					c3.9,3.9,9,5.8,14.1,5.8c5.1,0,10.2-1.9,14.1-5.8C438.9,139.2,438.9,136.2,437,134.3z"/>
			</g>
		</g>
		<g>
			<g>
				<path class="st0" d="M427,97.3c-2.7,0-4.9,2.2-4.9,4.9v11.6h-3.4c-2.7,0-4.9,2.2-4.9,4.9s2.2,4.9,4.9,4.9h8.2
					c2.7,0,4.9-2.2,4.9-4.9v-16.5C431.9,99.5,429.7,97.3,427,97.3z"/>
			</g>
		</g>
	</g>
	<g>
		<path id="XMLID_1_" class="st1" d="M141.9,359.7c1.8-2.8,2.1-6.2,0.7-9.2l-24.1-53.5c-1.6-3.5-5-5.7-8.8-5.7H72.2
			c-3.8,0-7.3,2.2-8.9,5.7l-24.1,53.5c-1.3,3-1.1,6.5,0.7,9.2c1.8,2.8,4.9,4.4,8.1,4.4h13.4c-1.7,3.9-2.6,8.1-2.6,12.6v5.3
			c0,4.5,0.9,8.7,2.6,12.6H9.7c-5.4,0-9.7,4.3-9.7,9.7v138c0,5.4,4.3,9.7,9.7,9.7h123.1c5.4,0,9.7-4.3,9.7-9.7v-138
			c0-5.4-4.3-9.7-9.7-9.7h-12.5c1.7-3.9,2.6-8.1,2.6-12.6v-5.3c0-4.5-0.9-8.7-2.6-12.6h13.4C137.1,364.1,140.1,362.4,141.9,359.7z
			 M78.5,310.6h25l15.3,34.1H91H63.1L78.5,310.6z M103.5,376.7v5.3c0,6.9-5.6,12.6-12.6,12.6s-12.6-5.6-12.6-12.6v-5.3
			c0-6.9,5.6-12.6,12.6-12.6S103.5,369.7,103.5,376.7z M123.1,413.9v28H84.6c-5.4,0-9.7,4.3-9.7,9.7c0,5.4,4.3,9.7,9.7,9.7h38.6
			v23.8H84.6c-5.4,0-9.7,4.3-9.7,9.7c0,5.4,4.3,9.7,9.7,9.7h38.6v28H19.4V413.9H123.1z M258,308.7c0,5.4-4.3,9.7-9.7,9.7h-2.4
			c-5.4,0-9.7-4.3-9.7-9.7s4.3-9.7,9.7-9.7h2.4C253.6,299,258,303.3,258,308.7z M426.8,266.2c0,5.4-4.3,9.7-9.7,9.7h-2.4
			c-5.4,0-9.7-4.3-9.7-9.7c0-5.4,4.3-9.7,9.7-9.7h2.4C422.5,256.5,426.8,260.8,426.8,266.2z M460.6,308.7c0,5.4-4.3,9.7-9.7,9.7
			h-2.4c-5.4,0-9.7-4.3-9.7-9.7s4.3-9.7,9.7-9.7h2.4C456.2,299,460.6,303.3,460.6,308.7z M478.4,216.1h-48.6
			c0.4-1.1,0.6-2.2,0.6-3.4c0-5.4-4.3-9.7-9.7-9.7h-61.6c-5.4,0-9.7,4.3-9.7,9.7c0,1.2,0.2,2.4,0.6,3.4H198.2
			c3.8-6.1,5.9-13.4,5.9-21.1c0-22.3-18.2-40.5-40.5-40.5H79.8c-7.7,0-14.9,2.2-21.1,5.9V94.2c0-16.2-13.2-29.4-29.4-29.4
			S0,78,0,94.2v263c0,5.4,4.3,9.7,9.7,9.7s9.7-4.3,9.7-9.7v-263c0-5.5,4.5-10,10-10c5.5,0,10,4.5,10,10v167.2c0,5.4,4.3,9.7,9.7,9.7
			s9.7-4.3,9.7-9.7v-25.8h126v83.4c0,21.9,17.8,39.8,39.8,39.8h268.1v42.2H170.8c-5.4,0-9.7,4.3-9.7,9.7s4.3,9.7,9.7,9.7h282.5v21.1
			c0,5.4,4.3,9.7,9.7,9.7h39.3c5.4,0,9.7-4.3,9.7-9.7V249.7C512,231.2,496.9,216.1,478.4,216.1z M163.6,216.1H79.8
			c-11.6,0-21.1-9.5-21.1-21.1c0-11.6,9.5-21.1,21.1-21.1h83.8c11.6,0,21.1,9.5,21.1,21.1C184.7,206.7,175.3,216.1,163.6,216.1z
			 M492.6,431.7h-19.9v-11.4h19.9V431.7z M492.6,339.3H224.5c-11.2,0-20.4-9.1-20.4-20.4v-83.4h274.3c7.8,0,14.2,6.4,14.2,14.2
			V339.3z M393,308.7c0,5.4-4.3,9.7-9.7,9.7h-2.4c-5.4,0-9.7-4.3-9.7-9.7s4.3-9.7,9.7-9.7h2.4C388.7,299,393,303.3,393,308.7z
			 M291.7,266.2c0,5.4-4.3,9.7-9.7,9.7h-2.4c-5.4,0-9.7-4.3-9.7-9.7c0-5.4,4.3-9.7,9.7-9.7h2.4C287.4,256.5,291.7,260.8,291.7,266.2
			z M359.3,266.2c0,5.4-4.3,9.7-9.7,9.7h-2.4c-5.4,0-9.7-4.3-9.7-9.7c0-5.4,4.3-9.7,9.7-9.7h2.4
			C354.9,256.5,359.3,260.8,359.3,266.2z M325.5,308.7c0,5.4-4.3,9.7-9.7,9.7h-2.4c-5.4,0-9.7-4.3-9.7-9.7s4.3-9.7,9.7-9.7h2.4
			C321.2,299,325.5,303.3,325.5,308.7z"/>
	</g>
</g>
</svg>
